<svg width="50" height="50" viewBox="0 0 50 50" fill="none" xmlns="http://www.w3.org/2000/svg">
<g clip-path="url(#clip0)">
<path d="M27.5908 41.6052L23.6598 37.6679C22.913 36.9189 21.8822 36.5434 20.8341 36.6368C19.797 36.7295 18.8629 37.2723 18.2716 38.126C18.2514 38.1552 18.2323 38.1852 18.2142 38.2158L17.6039 39.2488C16.865 39.2226 15.3046 38.8683 13.2244 36.7664C11.1637 34.6844 10.8069 33.1011 10.7739 32.3558L11.7997 31.7571C11.8313 31.7385 11.8623 31.7188 11.8926 31.698C12.7481 31.1091 13.2935 30.1767 13.3892 29.1398C13.4859 28.091 13.113 27.06 12.3656 26.3103L8.43461 22.373C7.34292 21.2784 5.70024 21.0084 4.34663 21.701C2.07045 22.8656 0.579633 25.0072 0.148578 27.7311C-0.221343 30.0679 0.178559 32.7492 1.30463 35.4848C2.44438 38.2535 4.29047 40.964 6.64311 43.3234C8.99741 45.6843 11.7034 47.5398 14.4685 48.6892C16.5549 49.5566 18.6099 50 20.5052 50C21.0931 50 21.666 49.9574 22.2193 49.8714C24.9396 49.4489 27.082 47.9659 28.2517 45.6958C28.9482 44.3442 28.683 42.7005 27.5908 41.6052Z" fill="#E24210"/>
<path d="M45.1364 4.85664C42.0047 1.72471 37.8407 0 33.4116 0C28.9825 0 24.8186 1.72471 21.6867 4.85664C19.0203 7.52305 17.3296 11.0524 16.9261 14.7946C16.5525 18.2594 17.2878 21.7829 19.0005 24.7906L17.3351 30.8403C17.1938 31.353 17.339 31.9021 17.715 32.2781C18.091 32.6542 18.64 32.7994 19.1528 32.6581L25.2025 30.9926C27.6983 32.4139 30.5493 33.162 33.4272 33.162C34.0174 33.162 34.6089 33.1306 35.1985 33.067C38.9407 32.6635 42.47 30.9729 45.1364 28.3064C51.6016 21.8412 51.6016 11.3218 45.1364 4.85664ZM27.8095 17.4903C26.9807 17.4903 26.3669 16.8129 26.331 16.0119C26.2953 15.2135 27.0361 14.5335 27.8095 14.5335C28.6383 14.5335 29.252 15.2109 29.2879 16.0119C29.3236 16.8104 28.5828 17.4903 27.8095 17.4903ZM33.4116 17.4903C32.5828 17.4903 31.969 16.8129 31.9332 16.0119C31.8975 15.2135 32.6383 14.5335 33.4116 14.5335C34.2404 14.5335 34.8542 15.2109 34.89 16.0119C34.9258 16.8104 34.1849 17.4903 33.4116 17.4903ZM39.0137 17.4903C38.1849 17.4903 37.5711 16.8129 37.5352 16.0119C37.4995 15.2135 38.2403 14.5335 39.0137 14.5335C39.8425 14.5335 40.4562 15.2109 40.4921 16.0119C40.5279 16.8104 39.7871 17.4903 39.0137 17.4903Z" fill="white"/>
</g>
<defs>
<clipPath id="clip0">
<rect width="50" height="50" fill="white"/>
</clipPath>
</defs>
</svg>
