<svg xmlns="http://www.w3.org/2000/svg" xmlns:xlink="http://www.w3.org/1999/xlink" viewBox="0 0 1160.92 839.3"><defs><style>.cls-1{fill:url(#linear-gradient);}.cls-2{fill:url(#linear-gradient-2);}.cls-12,.cls-14,.cls-3,.cls-34,.cls-44,.cls-52,.cls-59,.cls-60,.cls-69,.cls-70,.cls-73{fill:none;stroke-miterlimit:10;}.cls-14,.cls-3{stroke:#2c8877;}.cls-3,.cls-34,.cls-73{stroke-width:4px;}.cls-4{fill:url(#linear-gradient-3);}.cls-5{fill:url(#linear-gradient-4);}.cls-6{fill:url(#linear-gradient-5);}.cls-7{fill:url(#linear-gradient-6);}.cls-8{fill:url(#linear-gradient-7);}.cls-9{fill:url(#linear-gradient-8);}.cls-10{fill:url(#linear-gradient-9);}.cls-11{fill:url(#linear-gradient-10);}.cls-12{stroke:#2f7474;stroke-width:1.5px;}.cls-12,.cls-52,.cls-69,.cls-70,.cls-73{stroke-linecap:round;}.cls-13{fill:#f2f2f2;}.cls-14,.cls-44,.cls-52{stroke-width:3px;}.cls-15{fill:url(#linear-gradient-11);}.cls-16{fill:url(#linear-gradient-12);}.cls-17{fill:url(#linear-gradient-13);}.cls-18{fill:url(#linear-gradient-14);}.cls-19{fill:url(#linear-gradient-15);}.cls-20{fill:url(#linear-gradient-16);}.cls-21{fill:url(#linear-gradient-17);}.cls-22{fill:url(#linear-gradient-18);}.cls-23{fill:url(#linear-gradient-19);}.cls-24{fill:url(#linear-gradient-20);}.cls-25{fill:url(#linear-gradient-21);}.cls-26{fill:url(#linear-gradient-22);}.cls-27{fill:url(#linear-gradient-23);}.cls-28{fill:url(#linear-gradient-24);}.cls-29{fill:#2f7474;}.cls-30{fill:url(#linear-gradient-25);}.cls-31{fill:url(#linear-gradient-26);}.cls-32{fill:url(#linear-gradient-27);}.cls-33{fill:#ef7f7f;}.cls-34{stroke:url(#linear-gradient-28);}.cls-35{fill:url(#linear-gradient-29);}.cls-36{fill:url(#linear-gradient-30);}.cls-37,.cls-50,.cls-64{fill:#fff;}.cls-37{opacity:0.25;}.cls-38{opacity:0.56;fill:url(#linear-gradient-31);}.cls-39{fill:url(#linear-gradient-32);}.cls-40{fill:url(#linear-gradient-33);}.cls-41{fill:url(#linear-gradient-34);}.cls-42{fill:#222a2c;}.cls-43{fill:#19295e;}.cls-44{stroke:#0b193f;}.cls-45{fill:#1c2d75;}.cls-46{fill:#12245b;}.cls-47{fill:#e08370;}.cls-48{fill:#cd2f59;}.cls-49{fill:#e55e8f;}.cls-51{fill:#d1e7ff;}.cls-52{stroke:#fff;}.cls-53{fill:#fdad97;}.cls-54{fill:#202f83;}.cls-55{fill:#12246b;}.cls-56{fill:#d13b6a;}.cls-57{fill:#e86b9e;}.cls-58{fill:#f1c413;}.cls-59,.cls-60{stroke:#c49500;}.cls-59{stroke-width:5px;}.cls-60{stroke-width:6px;}.cls-61{fill:#e8b513;}.cls-62{fill:#0c0728;}.cls-63{fill:#1e1148;}.cls-64{opacity:0.05;}.cls-65{fill:#e6e6e6;}.cls-66{fill:#ae227a;}.cls-67{fill:#0063a6;}.cls-68{fill:#3f3f40;}.cls-69{stroke:#000;}.cls-69,.cls-70{stroke-width:2px;}.cls-70{stroke:#e08370;}.cls-71{fill:#f29883;}.cls-72{fill:#2e353d;}.cls-73{stroke:#de7d69;}.cls-74{fill:#e88977;}.cls-75{fill:url(#linear-gradient-35);}.cls-76{fill:url(#linear-gradient-36);}.cls-77{fill:url(#linear-gradient-37);}.cls-78{fill:url(#linear-gradient-38);}.cls-79{fill:url(#linear-gradient-39);}.cls-80{fill:url(#linear-gradient-40);}.cls-81{fill:url(#linear-gradient-41);}.cls-82{fill:url(#linear-gradient-42);}.cls-83{fill:url(#linear-gradient-43);}.cls-84{fill:url(#linear-gradient-44);}.cls-85{fill:url(#linear-gradient-45);}.cls-86{fill:url(#linear-gradient-46);}.cls-87{fill:url(#linear-gradient-47);}.cls-88{fill:url(#linear-gradient-48);}.cls-89{fill:url(#linear-gradient-49);}.cls-90{fill:url(#linear-gradient-50);}.cls-91{fill:url(#linear-gradient-51);}</style><linearGradient id="linear-gradient" x1="40.27" y1="453.37" x2="1003.57" y2="453.37" gradientUnits="userSpaceOnUse"><stop offset="0" stop-color="#0063a6"/><stop offset="0.1" stop-color="#22569d"/><stop offset="0.25" stop-color="#4d4693"/><stop offset="0.39" stop-color="#70398a"/><stop offset="0.54" stop-color="#8b2f83"/><stop offset="0.69" stop-color="#9f287e"/><stop offset="0.84" stop-color="#aa237b"/><stop offset="1" stop-color="#ae227a"/></linearGradient><linearGradient id="linear-gradient-2" x1="1158.57" y1="637.91" x2="388.64" y2="446.08" gradientUnits="userSpaceOnUse"><stop offset="0" stop-color="#0063a6"/><stop offset="0.07" stop-color="#125ca1"/><stop offset="0.31" stop-color="#494893"/><stop offset="0.53" stop-color="#753788"/><stop offset="0.72" stop-color="#942c81"/><stop offset="0.89" stop-color="#a7257c"/><stop offset="1" stop-color="#ae227a"/></linearGradient><linearGradient id="linear-gradient-3" x1="269.43" y1="357.96" x2="179.97" y2="58.87" gradientUnits="userSpaceOnUse"><stop offset="0" stop-color="#2c8877"/><stop offset="1" stop-color="#89c38a"/></linearGradient><linearGradient id="linear-gradient-4" x1="416.78" y1="299.48" x2="357.02" y2="223.24" xlink:href="#linear-gradient-3"/><linearGradient id="linear-gradient-5" x1="128.67" y1="365.32" x2="149.43" y2="312.54" xlink:href="#linear-gradient-3"/><linearGradient id="linear-gradient-6" x1="163.96" y1="485.3" x2="170.76" y2="434.68" xlink:href="#linear-gradient-3"/><linearGradient id="linear-gradient-7" x1="196.07" y1="593.02" x2="180.33" y2="533.29" xlink:href="#linear-gradient-3"/><linearGradient id="linear-gradient-8" x1="463.25" y1="408.05" x2="492.59" y2="337.59" xlink:href="#linear-gradient-3"/><linearGradient id="linear-gradient-9" x1="425.9" y1="517.36" x2="472.09" y2="440.99" xlink:href="#linear-gradient-3"/><linearGradient id="linear-gradient-10" x1="410.98" y1="598.38" x2="437.35" y2="554.38" xlink:href="#linear-gradient-3"/><linearGradient id="linear-gradient-11" x1="921.33" y1="254.85" x2="950.76" y2="234.25" xlink:href="#linear-gradient-3"/><linearGradient id="linear-gradient-12" x1="908.44" y1="293.2" x2="954.62" y2="279.2" xlink:href="#linear-gradient-3"/><linearGradient id="linear-gradient-13" x1="892.44" y1="327.37" x2="937.1" y2="309.03" xlink:href="#linear-gradient-3"/><linearGradient id="linear-gradient-14" x1="880.67" y1="364.05" x2="931.17" y2="342.89" xlink:href="#linear-gradient-3"/><linearGradient id="linear-gradient-15" x1="863.09" y1="397.68" x2="916.32" y2="384.88" xlink:href="#linear-gradient-3"/><linearGradient id="linear-gradient-16" x1="847.04" y1="448.31" x2="901.24" y2="427.19" xlink:href="#linear-gradient-3"/><linearGradient id="linear-gradient-17" x1="836.48" y1="480.09" x2="894.53" y2="469.02" xlink:href="#linear-gradient-3"/><linearGradient id="linear-gradient-18" x1="895.23" y1="270.4" x2="911.64" y2="265.88" xlink:href="#linear-gradient-3"/><linearGradient id="linear-gradient-19" x1="879.73" y1="305.3" x2="892.92" y2="297.04" xlink:href="#linear-gradient-3"/><linearGradient id="linear-gradient-20" x1="861.26" y1="344.44" x2="876.42" y2="329.47" xlink:href="#linear-gradient-3"/><linearGradient id="linear-gradient-21" x1="849.26" y1="379.99" x2="859.97" y2="365.18" xlink:href="#linear-gradient-3"/><linearGradient id="linear-gradient-22" x1="826.71" y1="427.94" x2="841.22" y2="413.74" xlink:href="#linear-gradient-3"/><linearGradient id="linear-gradient-23" x1="813.25" y1="468.65" x2="829.27" y2="452.24" xlink:href="#linear-gradient-3"/><linearGradient id="linear-gradient-24" x1="1002.88" y1="644.63" x2="955.46" y2="502.8" gradientTransform="translate(-80.77 178.89) rotate(-9.04)" xlink:href="#linear-gradient-3"/><linearGradient id="linear-gradient-25" x1="407.97" y1="530.58" x2="523.45" y2="475.51" gradientTransform="matrix(1, -0.09, 0.09, 1, -51.05, 57.73)" xlink:href="#linear-gradient-3"/><linearGradient id="linear-gradient-26" x1="680.28" y1="805.32" x2="680.7" y2="639.85" gradientUnits="userSpaceOnUse"><stop offset="0" stop-color="#298e6f"/><stop offset="0.3" stop-color="#37a282"/><stop offset="0.73" stop-color="#46b998"/><stop offset="1" stop-color="#4cc1a0"/></linearGradient><linearGradient id="linear-gradient-27" x1="195.81" y1="719.4" x2="361.76" y2="719.4" gradientUnits="userSpaceOnUse"><stop offset="0.01" stop-color="#fdb9b8"/><stop offset="0.28" stop-color="#f9a8a7"/><stop offset="1" stop-color="#ef7f7f"/></linearGradient><linearGradient id="linear-gradient-28" x1="1081.84" y1="773.29" x2="1107.54" y2="773.29" gradientUnits="userSpaceOnUse"><stop offset="0.01" stop-color="#b3b3b3"/><stop offset="0.21" stop-color="#c8c8c8"/><stop offset="0.5" stop-color="#dfdfdf"/><stop offset="0.77" stop-color="#ededed"/><stop offset="1" stop-color="#f2f2f2"/></linearGradient><linearGradient id="linear-gradient-29" x1="1021.87" y1="779.03" x2="1088.7" y2="779.03" xlink:href="#linear-gradient-28"/><linearGradient id="linear-gradient-30" x1="1056.16" y1="809.06" x2="1056.18" y2="804" gradientUnits="userSpaceOnUse"><stop offset="0.01" stop-color="#b3b3b3"/><stop offset="0.54" stop-color="#d7d7d7"/><stop offset="1" stop-color="#f2f2f2"/></linearGradient><linearGradient id="linear-gradient-31" x1="1091.01" y1="766.83" x2="1023.49" y2="766.83" xlink:href="#linear-gradient-28"/><linearGradient id="linear-gradient-32" x1="1049.76" y1="726.06" x2="1058.12" y2="726.06" xlink:href="#linear-gradient-28"/><linearGradient id="linear-gradient-33" x1="1064.41" y1="729.64" x2="1070.94" y2="729.64" xlink:href="#linear-gradient-28"/><linearGradient id="linear-gradient-34" x1="1038.73" y1="732.16" x2="1045.26" y2="732.16" xlink:href="#linear-gradient-28"/><linearGradient id="linear-gradient-35" x1="1075.87" y1="655.41" x2="1101.53" y2="655.41" gradientTransform="translate(513.37 -477.65) rotate(32.03)" xlink:href="#linear-gradient-3"/><linearGradient id="linear-gradient-36" x1="999.77" y1="447.89" x2="1033.29" y2="447.89" gradientTransform="translate(392.31 -470.96) rotate(32.03)" xlink:href="#linear-gradient-3"/><linearGradient id="linear-gradient-37" x1="561.01" y1="316.51" x2="578.88" y2="316.51" gradientTransform="matrix(0.74, 0.68, -0.68, 0.74, 319.75, -323.37)" xlink:href="#linear-gradient-3"/><linearGradient id="linear-gradient-38" x1="571.98" y1="249.36" x2="585.16" y2="249.36" gradientTransform="translate(247 -344.1) rotate(42.55)" xlink:href="#linear-gradient-3"/><linearGradient id="linear-gradient-39" x1="1097.09" y1="617.05" x2="1113.99" y2="617.05" gradientTransform="translate(495.59 -492.42) rotate(32.03)" xlink:href="#linear-gradient-3"/><linearGradient id="linear-gradient-40" x1="1020.16" y1="409.05" x2="1033.98" y2="409.05" gradientTransform="matrix(0.6, 0.8, -0.8, 0.6, 729, -670.72)" xlink:href="#linear-gradient-3"/><linearGradient id="linear-gradient-41" x1="805.99" y1="212.49" x2="839.51" y2="212.49" gradientTransform="translate(237.96 -404.02) rotate(32.03)" xlink:href="#linear-gradient-3"/><linearGradient id="linear-gradient-42" x1="774.01" y1="229.13" x2="787.82" y2="229.13" gradientTransform="translate(540.63 -601.27) rotate(52.82)" xlink:href="#linear-gradient-3"/><linearGradient id="linear-gradient-43" x1="390.19" y1="636.23" x2="403.46" y2="636.23" gradientTransform="translate(661.98 -66.73) rotate(52.82)" xlink:href="#linear-gradient-3"/><linearGradient id="linear-gradient-44" x1="372.99" y1="546.87" x2="386.25" y2="546.87" gradientTransform="matrix(0.8, 0.8, -1.05, 0.6, 641.48, -74.86)" xlink:href="#linear-gradient-3"/><linearGradient id="linear-gradient-45" x1="977.38" y1="321.32" x2="989.38" y2="321.32" gradientTransform="translate(991.36 -710.9) rotate(72.38)" xlink:href="#linear-gradient-3"/><linearGradient id="linear-gradient-46" x1="392.84" y1="673.34" x2="416.48" y2="673.34" gradientTransform="matrix(0.53, 0.85, -0.85, 0.53, 754.63, -30.37)" xlink:href="#linear-gradient-3"/><linearGradient id="linear-gradient-47" x1="135.55" y1="656.69" x2="155.41" y2="656.69" gradientTransform="translate(580.88 134.62) rotate(52.82)" xlink:href="#linear-gradient-3"/><linearGradient id="linear-gradient-48" x1="127.28" y1="631.69" x2="140.55" y2="631.69" gradientTransform="translate(556.31 133.97) rotate(52.82)" xlink:href="#linear-gradient-3"/><linearGradient id="linear-gradient-49" x1="129.45" y1="235.31" x2="149.31" y2="235.31" gradientTransform="matrix(0.75, 0.8, -0.99, 0.6, 256.17, -13.76)" xlink:href="#linear-gradient-3"/><linearGradient id="linear-gradient-50" x1="111.84" y1="222.62" x2="125.11" y2="222.62" gradientTransform="translate(223.21 -15.54) rotate(52.82)" xlink:href="#linear-gradient-3"/><linearGradient id="linear-gradient-51" x1="297.84" y1="104.09" x2="311.11" y2="104.09" gradientTransform="matrix(0.74, 0.8, -0.98, 0.6, 169.83, -199.44)" xlink:href="#linear-gradient-3"/></defs><title>wiw site draw</title><g id="Layer_25" data-name="Layer 25"><path class="cls-1" d="M963.6,590.53c-17.06-21.64-38.75-40.78-51.36-64.6a99.53,99.53,0,0,1-7-77.19c4.78-14.75,13-28.47,19.58-42.68,22-47.4,26.72-56.13,1.83-102.43s-102.36-4.83-161.19-3.11C702,296.61,664,228.58,616.15,188.7c-62.44-52-108.85-82.65-171.4-89.79-40.25-4.59-83.14.64-115.6,21.94s-54.24,53.1-65.3,86.82c-9.49,28.93-11.78,59.89-27.34,86.82-18.9,32.69-54.8,55.24-82.87,82.67-28.4,27.75-49.34,61.71-55.82,98.19s2.31,75.45,27.67,105.28c18.85,22.17,47.19,40.78,52,67.89,3.19,18-5,35.86-9.79,53.61-3.3,12.11-14.94,87.24,60.56,107.24L872.37,785Z" transform="translate(-22.51 -33.49)"/><path class="cls-2" d="M1063.76,662.94c-92-45.23-50.67-128.6-44.72-151.92,8.89-13.69,18.71-26.88,26.49-41.17,5.13-9.43,8-20.16,10.65-30.46a216.32,216.32,0,0,0,6.48-40.68c1.63-27.19-2.42-55.13-14.25-79.92-19.51-40.87-66.56-69.72-111.6-74.38-24.17-2.5-49.44.8-72.79,7-.81.21-1.61.44-2.41.66-37.45,1.76-74.84,4.87-109.06-8.8-11.95-4.78-23-11.44-33.62-18.74-8.31-7.17-16.46-14.53-24.74-21.69-16-13.8-32.8-27.87-52.47-36.35-21.31-9.2-46.33-10-68.94-5.52-23.65,4.65-44.19,16.35-61.08,33.09-14.4,14.27-23.59,31.93-30.55,50.65-4,10.83-7.81,21.86-9.91,33.23-1.84,10-2.83,20-3.7,30.09-1.92,22.15-2.81,44.72-8.49,66.35-.2.75-.41,1.5-.62,2.25C442.68,399.32,420,417.29,401,437.89c-17.31,13.66-33.14,28.91-45.27,47.43-13.57,20.71-21.9,45-19.93,69.84,1.92,24.25,13.1,46.46,30.23,63.72a117.29,117.29,0,0,0,9.16,14.45c15.58,21,39,38.61,43,64.27,2.65,17.06-4.09,34-8.09,50.76S405.62,785,418,797.28l454.29-6.12,215,18.35C1147.76,745.77,1099.71,680.62,1063.76,662.94ZM895.39,249.74c24.43-2.93,48.82-2.06,72.09,6.29,22.68,8.13,43.74,21.77,59.77,39.53,37.08,41.08,37,103.39,21.6,153.26-2.64,8.59-5.65,16.5-10.34,24.18-4.36,7.15-9.1,14.07-13.76,21,3.52-8.72,7.6-17.25,11.14-26,18.17-44.88,20.93-97.25.36-141.09s-78.93-76.66-127.55-75c-7.85-.55-15.76-.69-23.7-.61C888.44,250.7,891.89,250.16,895.39,249.74ZM469.08,341.91c2.26-21.08,2.67-42.47,6.61-63.34,2-10.69,5.55-21.06,9.28-31.27a166.23,166.23,0,0,1,14-30.06,116.63,116.63,0,0,1,44.58-41.56c23.39-12.15,51.67-15.55,77.58-10.83,20.6,3.75,38.29,15.46,54.32,28.17,1.87,1.49,3.72,3,5.57,4.52-13.08-8.72-26.7-16.23-41.95-20.27-32.62-8.66-68.72.6-95.54,20.77s-44.83,50.26-54,82.19c-7.84,27.39-9.73,56.7-22.6,82.2-.3.6-.62,1.19-.93,1.78C467.38,356.77,468.29,349.26,469.08,341.91Zm-120.8,244c-10.77-23.69-10.55-50.4-1.15-74.46,8.05-20.62,21.82-38.69,37.88-54.1-16.54,22.73-28.41,48.76-32.68,76.31a139.55,139.55,0,0,0,7.19,71A98.24,98.24,0,0,1,348.28,585.91Z" transform="translate(-22.51 -33.49)"/></g><g id="Layer_28" data-name="Layer 28"><path class="cls-3" d="M368.63,616.35c-11.94,20.14-16.49,50.43-16.49,82.29" transform="translate(-22.51 -33.49)"/><path class="cls-3" d="M360.32,537.14c-21.5,41.41-26.44,95-24.75,161.5" transform="translate(-22.51 -33.49)"/><path class="cls-3" d="M255.07,622.14c8,14.4,9,47.55,6.75,76.5" transform="translate(-22.51 -33.49)"/><path class="cls-3" d="M247.32,537.14c22.83,48.25,28.25,104.58,25.75,161.5" transform="translate(-22.51 -33.49)"/><path class="cls-3" d="M225.57,428c50,66.39,65.75,170.39,66,270.64" transform="translate(-22.51 -33.49)"/><path class="cls-3" d="M275.57,397.89c22.61,100.23,25,201.5,24.83,300.75" transform="translate(-22.51 -33.49)"/><path class="cls-3" d="M327.32,422.06c-14.56,79.64-20.06,172.81-17.5,276.58" transform="translate(-22.51 -33.49)"/><path class="cls-3" d="M349.07,475.64c-30,55.92-34.25,133-30,223" transform="translate(-22.51 -33.49)"/><path class="cls-4" d="M281.82,188.72c33.65,101.11,15,205-4.22,211.36s-75.47-68.25-109.12-169.36S136.53,40.35,155.74,34,248.17,87.62,281.82,188.72Z" transform="translate(-22.51 -33.49)"/><path class="cls-5" d="M344.59,243.11C307,327.78,311.74,418,326.71,424.61S395,370.63,432.5,286s45.18-161.32,30.21-168S382.14,158.44,344.59,243.11Z" transform="translate(-22.51 -33.49)"/><path class="cls-6" d="M227.69,428.94a2.09,2.09,0,0,1-3.47.51c-22.75-25.88-60-50.8-86.65-63.06C79.93,339.89,7.79,338.24,25.13,314.72c1.9-2.57,4.72-4.13,7.25-6.08,20.4-15.73,130.08-54.13,195.37,118.66a2.12,2.12,0,0,1-.06,1.64Z" transform="translate(-22.51 -33.49)"/><path class="cls-7" d="M248.72,540.65a3.06,3.06,0,0,0,1.58-3.4c-6.65-28.36-25.32-56.76-48.36-74.32-23.67-18-52.45-28.62-81.83-33.37-7.67-1.25-15.49-2.11-23.2-1.15a39.26,39.26,0,0,0-9.14,2.41,19.13,19.13,0,0,0-9.48,27.71,38.92,38.92,0,0,0,3.88,5.36c5.8,6.74,13.48,11.58,21.35,15.71,8.52,4.48,42.56,17.09,57.27,20.06,41,8.29,67.5,23.1,84.27,40.38a3.06,3.06,0,0,0,3.64.61Z" transform="translate(-22.51 -33.49)"/><path class="cls-8" d="M257.65,625.37c-.33-1.35-.59-3.11-.95-4.45A136.6,136.6,0,0,0,215,554.32c-9.67-8.43-20.6-15.4-32.52-19.54-7.45-2.59-21.34-4.35-33.1-2.39a19.86,19.86,0,0,0-15,27.56,38.2,38.2,0,0,0,7.22,10.83c7.58,8,18,12.78,28.57,15.84s21.57,4.57,32.32,7c10.43,2.4,20.73,5.73,30.07,11,8.77,4.9,15.39,10.47,21,18.79.62.92,3.11,2.39,4.14,2Z" transform="translate(-22.51 -33.49)"/><path class="cls-9" d="M347.11,476.61a2.3,2.3,0,0,0,3.8.56c24.91-28.35,65.7-55.64,94.9-69.07,63.12-29,142.13-30.82,123.13-56.58-2.07-2.81-5.16-4.53-7.93-6.66-22.35-17.22-142.47-59.28-214,130a2.34,2.34,0,0,0,.07,1.8Z" transform="translate(-22.51 -33.49)"/><path class="cls-10" d="M359,540.13a3.28,3.28,0,0,1-1.59-3.58c6.66-29.84,25.32-59.74,48.37-78.22,23.66-19,52.45-30.13,81.82-35.14,7.67-1.3,15.49-2.21,23.21-1.21a38.48,38.48,0,0,1,9.13,2.54C531,429,535.58,443,529.46,453.69a42.08,42.08,0,0,1-3.89,5.64c-5.8,7.1-13.48,12.19-21.35,16.54-8.52,4.71-42.56,18-57.27,21.11-41,8.74-67.5,24.32-84.26,42.51a3,3,0,0,1-3.65.65Z" transform="translate(-22.51 -33.49)"/><path class="cls-11" d="M366.49,617.38c5.2-19.26,17.66-36.34,33.92-49a80.35,80.35,0,0,1,25.36-13.63c5.8-1.81,16.63-3,25.8-1.66,10,1.49,15.75,11,11.69,19.22a26.55,26.55,0,0,1-5.63,7.55c-5.92,5.56-14,8.91-22.28,11s-16.82,3.18-25.2,4.9a95.23,95.23,0,0,0-23.44,7.64,47.06,47.06,0,0,0-16.66,14.06c-.48.65-2.13.71-2.94.42Z" transform="translate(-22.51 -33.49)"/></g><g id="Layer_36" data-name="Layer 36"><path class="cls-12" d="M369.43,613s28.33-46.24,87.66-48.12" transform="translate(-22.51 -33.49)"/><path class="cls-12" d="M430.73,568.93A19,19,0,0,1,440.59,556" transform="translate(-22.51 -33.49)"/><path class="cls-12" d="M396.79,585.28a20.94,20.94,0,0,1,4-12.57" transform="translate(-22.51 -33.49)"/><path class="cls-12" d="M424.63,570.84s6.63,7.94,25.79,8.15" transform="translate(-22.51 -33.49)"/><path class="cls-12" d="M389.48,590.57a36.12,36.12,0,0,0,22.56.76" transform="translate(-22.51 -33.49)"/><path class="cls-12" d="M360.32,537.14c33.94-70.77,99.28-72.43,166.7-101.68" transform="translate(-22.51 -33.49)"/><path class="cls-12" d="M488.77,449.9s.74-13.53,15.49-23.78" transform="translate(-22.51 -33.49)"/><path class="cls-12" d="M440.59,466.74S439.26,451.9,451.51,438" transform="translate(-22.51 -33.49)"/><path class="cls-12" d="M399.7,488.64s-1.94-16.52,6.31-27.52" transform="translate(-22.51 -33.49)"/><path class="cls-12" d="M479.77,452.92s12.24,11.7,37.74,10.45" transform="translate(-22.51 -33.49)"/><path class="cls-12" d="M430.73,470.91S447.76,486,475,486.2" transform="translate(-22.51 -33.49)"/><path class="cls-12" d="M394.45,492.75s13.11,9.87,41.21,3.87" transform="translate(-22.51 -33.49)"/><path class="cls-12" d="M352.14,470.91C406,394,477.34,320,567.5,358.91" transform="translate(-22.51 -33.49)"/><path class="cls-12" d="M520.76,348.23s8-10.39,26.66-9.12" transform="translate(-22.51 -33.49)"/><path class="cls-12" d="M475,356.56s.41-17.19,17.41-23.85" transform="translate(-22.51 -33.49)"/><path class="cls-12" d="M435.66,378.84s-2.32-18.75,4.89-30.61" transform="translate(-22.51 -33.49)"/><path class="cls-12" d="M394.45,417s-1.19-26.71,11.56-39.36" transform="translate(-22.51 -33.49)"/><path class="cls-12" d="M511.39,348.41s3,19.76,26.7,25.69" transform="translate(-22.51 -33.49)"/><path class="cls-12" d="M466.73,360.08s13,20.63,37.53,23.29" transform="translate(-22.51 -33.49)"/><path class="cls-12" d="M430.57,383.06s9.52,11.86,35.61,12.21" transform="translate(-22.51 -33.49)"/><path class="cls-12" d="M388.92,423.27s11.58,5.69,28.15-1.71" transform="translate(-22.51 -33.49)"/><path class="cls-12" d="M327.32,422.06c36.44-124.83,82.1-221.69,132.5-300.69" transform="translate(-22.51 -33.49)"/><path class="cls-12" d="M430.59,170.28s-6.83-18.57-2.17-33.57" transform="translate(-22.51 -33.49)"/><path class="cls-12" d="M402.86,223.42S388.09,199,389.76,174" transform="translate(-22.51 -33.49)"/><path class="cls-12" d="M380.8,271.71S359.42,247.25,360.09,217" transform="translate(-22.51 -33.49)"/><path class="cls-12" d="M359.54,324.8s-22.12-28.36-22.45-53.56" transform="translate(-22.51 -33.49)"/><path class="cls-12" d="M339.29,383.06s-18.87-19.69-18.87-46" transform="translate(-22.51 -33.49)"/><path class="cls-12" d="M424,182.29A48.64,48.64,0,0,0,462.09,168" transform="translate(-22.51 -33.49)"/><path class="cls-12" d="M397.63,234.33s29.46,7.25,53.79-17.35" transform="translate(-22.51 -33.49)"/><path class="cls-12" d="M376.41,282.11s33.44,6.6,58.89-17.07" transform="translate(-22.51 -33.49)"/><path class="cls-12" d="M355.65,335.33s30.11,4.38,58.11-19.62" transform="translate(-22.51 -33.49)"/><path class="cls-12" d="M335.92,393.65s21.93.76,44.88-21.92" transform="translate(-22.51 -33.49)"/><path class="cls-12" d="M157.09,38.37c56.67,108,98.67,226.67,118.48,359.52" transform="translate(-22.51 -33.49)"/><path class="cls-12" d="M185.18,95.49a49.25,49.25,0,0,1-38.92-14.62" transform="translate(-22.51 -33.49)"/><path class="cls-12" d="M210,153.49s-35.19,11.38-57.69-8.62" transform="translate(-22.51 -33.49)"/><path class="cls-12" d="M229.62,207.25s-35.44,9.34-63.9-8.52" transform="translate(-22.51 -33.49)"/><path class="cls-12" d="M247.37,265S223,275,181.1,253.19" transform="translate(-22.51 -33.49)"/><path class="cls-12" d="M262.17,324.8s-21,8.74-52.22-9.09" transform="translate(-22.51 -33.49)"/><path class="cls-12" d="M192.67,112.13s11.42-20.26,5-51.76" transform="translate(-22.51 -33.49)"/><path class="cls-12" d="M214.24,164.52s17.28-20.65,13.65-66.65" transform="translate(-22.51 -33.49)"/><path class="cls-12" d="M234.94,223.42s21.82-22.55,20.32-78.55" transform="translate(-22.51 -33.49)"/><path class="cls-12" d="M252,282.11s26.8-22.52,26.8-83.38" transform="translate(-22.51 -33.49)"/><path class="cls-12" d="M265.36,339.94s17.9-7.57,28.4-60.57" transform="translate(-22.51 -33.49)"/><path class="cls-12" d="M225,426.37C170,339.94,103.68,295.22,24.76,321" transform="translate(-22.51 -33.49)"/><path class="cls-12" d="M61.74,313.93S60.09,327,35.59,329.71" transform="translate(-22.51 -33.49)"/><path class="cls-12" d="M98.93,317.5S94.09,336,67.09,339.87" transform="translate(-22.51 -33.49)"/><path class="cls-12" d="M137.76,333.88s-8.67,15.16-41,14.49" transform="translate(-22.51 -33.49)"/><path class="cls-12" d="M166.55,355.23s-10.13,8.94-33,6.71" transform="translate(-22.51 -33.49)"/><path class="cls-12" d="M192.54,381.94s-9.95,3.93-24.62-1.07" transform="translate(-22.51 -33.49)"/><path class="cls-12" d="M70.09,313.74a28.75,28.75,0,0,0-24.5-10.37" transform="translate(-22.51 -33.49)"/><path class="cls-12" d="M107,319.8s-9.24-20.43-28.91-23.09" transform="translate(-22.51 -33.49)"/><path class="cls-12" d="M147.88,340.44s-3.6-26.52-21.46-35.4" transform="translate(-22.51 -33.49)"/><path class="cls-12" d="M172.73,360.91s1.36-21.57-11.47-34" transform="translate(-22.51 -33.49)"/><path class="cls-12" d="M196.7,386.92s-1.44-21.05-8.44-29.71" transform="translate(-22.51 -33.49)"/><path class="cls-12" d="M79.09,444.71c63,26.2,129,18.66,168.23,94" transform="translate(-22.51 -33.49)"/><path class="cls-12" d="M111.9,455.88s-1.46-16.51-16.13-23.17" transform="translate(-22.51 -33.49)"/><path class="cls-12" d="M150.07,466.22s-2.65-20-19.31-30.76" transform="translate(-22.51 -33.49)"/><path class="cls-12" d="M183.59,477.94s-1.83-20.57-12.17-30.57" transform="translate(-22.51 -33.49)"/><path class="cls-12" d="M217.46,499.43s-2.37-19.66-11-28.52" transform="translate(-22.51 -33.49)"/><path class="cls-12" d="M118.31,457.67a49.73,49.73,0,0,1-31.8,6.7" transform="translate(-22.51 -33.49)"/><path class="cls-12" d="M157.09,468.28c-.5-.16-17.05,13.84-45.19,11.84" transform="translate(-22.51 -33.49)"/><path class="cls-12" d="M190.47,481.21s-22.81,16.16-50.05,9.41" transform="translate(-22.51 -33.49)"/><path class="cls-12" d="M221.23,502.94s-13.72,5.93-32,1.18" transform="translate(-22.51 -33.49)"/><path class="cls-12" d="M137,547.93c43.33,26.11,90.88,19.34,118.06,74.21" transform="translate(-22.51 -33.49)"/><path class="cls-12" d="M163,560.27s2.3-16.4-10.7-25.65" transform="translate(-22.51 -33.49)"/><path class="cls-12" d="M192.54,570.62s3.22-20.33-10-31.91" transform="translate(-22.51 -33.49)"/><path class="cls-12" d="M223.12,585s-.11-17.47-7.36-24.69" transform="translate(-22.51 -33.49)"/><path class="cls-12" d="M171.31,563.32s-13.55,8.89-29.89,4.22" transform="translate(-22.51 -33.49)"/><path class="cls-12" d="M198.14,572.69a48.44,48.44,0,0,1-36.88,9" transform="translate(-22.51 -33.49)"/><path class="cls-12" d="M227.18,587.87s-10,7-31.14,2.17" transform="translate(-22.51 -33.49)"/></g><g id="Layer_24" data-name="Layer 24"><ellipse class="cls-13" cx="634.32" cy="808.3" rx="431.26" ry="31"/></g><g id="Layer_20" data-name="Layer 20"><path class="cls-14" d="M824.68,530.79s42.67-179.33,102-265.33" transform="translate(-22.51 -33.49)"/><path class="cls-15" d="M924.48,268.69c-2.67-1.67,18-59.74,32.5-50.21C972.48,228.69,926.46,269.93,924.48,268.69Z" transform="translate(-22.51 -33.49)"/><path class="cls-16" d="M910.34,292.74c-.82-2.51,43.75-28.85,48-14.92C962.82,292.74,911,294.6,910.34,292.74Z" transform="translate(-22.51 -33.49)"/><path class="cls-17" d="M894,325.77c-1-2.5,42.59-32.39,47.84-18.49C947.41,322.17,894.7,327.63,894,325.77Z" transform="translate(-22.51 -33.49)"/><path class="cls-18" d="M877,366.45c-1.31-2.82,47.23-39.87,54.11-24.14C938.44,359.16,878,368.55,877,366.45Z" transform="translate(-22.51 -33.49)"/><path class="cls-19" d="M861.63,405.39c-1.31-2.83,47.23-39.88,54.1-24.15C923.09,398.09,862.61,407.48,861.63,405.39Z" transform="translate(-22.51 -33.49)"/><path class="cls-20" d="M847.18,450.35c-1.4-3,50.18-42.36,57.48-25.65C912.48,442.6,848.22,452.58,847.18,450.35Z" transform="translate(-22.51 -33.49)"/><path class="cls-21" d="M835.52,489.9c-1.42-3,51-43,58.41-26.07C901.87,482,836.58,492.16,835.52,489.9Z" transform="translate(-22.51 -33.49)"/><path class="cls-22" d="M909.86,292.37c2.59-.5,3.95-52.25-10.27-49.17C884.36,246.51,907.93,292.74,909.86,292.37Z" transform="translate(-22.51 -33.49)"/><path class="cls-23" d="M893.39,325.61c2.63-.58,2.45-53.45-12-49.87C866,279.58,891.44,326.05,893.39,325.61Z" transform="translate(-22.51 -33.49)"/><path class="cls-24" d="M876.5,365.84c3-.7,2.38-61.77-14.25-57.51C844.44,312.9,874.24,366.36,876.5,365.84Z" transform="translate(-22.51 -33.49)"/><path class="cls-25" d="M861.75,405.16c3-1-3.25-61.73-19.42-56C825,355.35,859.55,405.88,861.75,405.16Z" transform="translate(-22.51 -33.49)"/><path class="cls-26" d="M846.79,450.64c3-1.48-12.92-64.39-29-55.84C800.5,403.94,844.59,451.74,846.79,450.64Z" transform="translate(-22.51 -33.49)"/><path class="cls-27" d="M835.34,489.72c3-1.49-12.88-65.47-29.29-56.86C788.48,442.09,833.1,490.83,835.34,489.72Z" transform="translate(-22.51 -33.49)"/></g><g id="Layer_19" data-name="Layer 19"><path class="cls-28" d="M1183.42,475c-45.63,34.64-163.63,206.27-251.81,252.12-9.13,4.75-65.78,33.39-113.75,23.94-.35-.07-.7-.13-1-.21-43.16-9-64.88-63-42.58-104.94,20.63-38.83,52.26-70.75,87.63-93.54a335,335,0,0,1,55.73-28.63c3.64,16.5,9.69,44.71,9.69,44.71s4.22-30,12.1-52.83c25.88-8.89,52.53-15.42,79.15-20.8A1036.82,1036.82,0,0,1,1183.42,475Z" transform="translate(-22.51 -33.49)"/><path class="cls-29" d="M779,713.69c13.9-13,28.16-25.61,42.94-37.61l11.1-9,11.32-8.7,5.66-4.35c1.89-1.46,3.77-2.91,5.71-4.3l11.53-8.42c7.63-5.7,15.52-11,23.36-16.43l5.89-4c2-1.33,4-2.61,6-3.92l11.95-7.83q24-15.51,48.64-29.94l6.16-3.62c2-1.2,4.15-2.33,6.23-3.5l12.48-6.94c8.27-4.72,16.74-9.07,25.15-13.54,4.22-2.2,8.39-4.49,12.65-6.62l12.77-6.39,12.77-6.39,12.94-6,12.93-6c2.15-1,4.33-2,6.51-2.94l6.53-2.88,13.07-5.75c2.18-.95,4.35-1.93,6.54-2.85l6.6-2.72,13.22-5.39c4.41-1.78,8.78-3.66,13.25-5.3q13.32-5.1,26.69-10.1-13.18,5.46-26.39,10.84c-4.43,1.74-8.75,3.73-13.12,5.6l-13.07,5.7-6.55,2.82c-2.17,1-4.33,2-6.49,2.95L1091,516l-6.48,3c-2.16,1-4.32,2-6.45,3l-12.83,6.22-12.83,6.22-12.71,6.45-12.71,6.44c-4.24,2.14-8.4,4.45-12.6,6.67-8.37,4.49-16.8,8.88-25,13.62l-12.42,7c-2.06,1.17-4.15,2.3-6.2,3.52l-6.13,3.62Q939.9,596,915.89,611.4l-12,7.74c-2,1.3-4,2.57-6,3.89l-5.89,4c-7.83,5.39-15.79,10.59-23.49,16.16L857,651.44c-2,1.35-3.85,2.78-5.75,4.2l-5.71,4.26-11.43,8.52-11.21,8.81-5.63,4.38-2.81,2.19-2.75,2.26-11,9.06c-1.83,1.52-3.7,3-5.49,4.56l-5.38,4.68Z" transform="translate(-22.51 -33.49)"/><path class="cls-29" d="M1022.55,548.05c6.43.19,12.83.66,19.21,1.24,3.2.27,6.38.64,9.57,1l9.55,1.11,9.52,1.28c3.17.48,6.35.91,9.51,1.45,6.33,1,12.65,2.14,18.93,3.56-6.44-.18-12.84-.66-19.22-1.24-3.2-.26-6.38-.63-9.57-.95l-9.55-1.12-9.52-1.28c-3.17-.48-6.35-.91-9.51-1.45C1035.14,550.59,1028.83,549.47,1022.55,548.05Z" transform="translate(-22.51 -33.49)"/><path class="cls-29" d="M961.09,582c1.32-6.22,2.92-12.36,4.62-18.47.82-3.06,1.75-6.09,2.63-9.13l2.78-9.09,2.94-9c1-3,2-6,3.11-9,2.12-6,4.34-11.92,6.84-17.77-1.31,6.23-2.91,12.37-4.61,18.47-.82,3.07-1.75,6.09-2.63,9.14L974,546.17l-2.94,9c-1,3-2,6-3.11,9C965.81,570.17,963.59,576.11,961.09,582Z" transform="translate(-22.51 -33.49)"/><path class="cls-29" d="M868.11,642c-.21-7.57-.12-15.12.07-22.67.06-3.77.24-7.54.36-11.31l.53-11.31.69-11.3c.29-3.76.52-7.53.87-11.29.63-7.52,1.36-15,2.39-22.54.22,7.57.14,15.13,0,22.67-.07,3.78-.25,7.55-.37,11.32l-.53,11.3-.7,11.3c-.29,3.76-.52,7.53-.86,11.29C869.88,627,869.14,634.54,868.11,642Z" transform="translate(-22.51 -33.49)"/><path class="cls-29" d="M888.11,628.09c9.95,2,19.82,4.35,29.66,6.77,4.93,1.18,9.83,2.47,14.74,3.7l14.7,3.87,14.66,4c4.87,1.39,9.76,2.73,14.62,4.18,9.72,2.85,19.42,5.79,29,9-9.95-2-19.82-4.35-29.66-6.77-4.93-1.18-9.83-2.47-14.75-3.7l-14.69-3.87-14.66-4c-4.87-1.4-9.76-2.74-14.61-4.19C907.44,634.27,897.74,631.32,888.11,628.09Z" transform="translate(-22.51 -33.49)"/><path class="cls-29" d="M811.08,685.76c9.58,2.59,19.06,5.46,28.51,8.43,4.74,1.46,9.44,3,14.15,4.53l14.1,4.69,14,4.84c4.66,1.67,9.34,3.29,14,5,9.31,3.38,18.58,6.87,27.76,10.64-9.58-2.59-19.06-5.46-28.51-8.43-4.74-1.45-9.44-3-14.15-4.53l-14.1-4.69-14-4.84c-4.67-1.67-9.35-3.29-14-5C829.54,693,820.26,689.53,811.08,685.76Z" transform="translate(-22.51 -33.49)"/><path class="cls-29" d="M801,694.24c-1.11-5.82-1.93-11.67-2.64-17.53-.38-2.93-.66-5.86-1-8.8l-.82-8.8-.66-8.83c-.16-2.94-.38-5.88-.49-8.83-.27-5.9-.44-11.8-.31-17.73,1.11,5.82,1.93,11.67,2.64,17.53.39,2.93.66,5.86,1,8.8l.82,8.81.66,8.82c.16,2.94.38,5.88.49,8.83C800.93,682.41,801.1,688.32,801,694.24Z" transform="translate(-22.51 -33.49)"/><path class="cls-30" d="M371.49,340.2c28.69,36.89,165.26,128.45,204.68,200.72,4.08,7.49,28.78,54,24.07,94.86,0,.3-.06.59-.1.88-4.58,36.83-44.53,57.67-77.58,40.81-30.58-15.6-56.48-40.8-75.64-69.58a295,295,0,0,1-24.64-45.69c12.35-3.84,33.48-10.25,33.48-10.25s-23.05-2.16-40.79-7.76c-8.09-21.41-14.43-43.59-19.9-65.81A967.82,967.82,0,0,1,371.49,340.2Z" transform="translate(-22.51 -33.49)"/><path class="cls-29" d="M573.81,670.32c-10.84-11.32-21.39-22.94-31.42-35-2.51-3-5-6-7.51-9.06L527.59,617c-4.93-6.11-9.58-12.43-14.3-18.69-9.43-12.55-18.33-25.48-27.08-38.51-2.22-3.23-4.34-6.53-6.46-9.83l-6.39-9.89c-2.15-3.28-4.2-6.62-6.26-10l-6.17-10c-8.06-13.46-15.9-27.05-23.41-40.83-3.86-6.83-7.45-13.8-11.11-20.74-1.82-3.48-3.68-6.93-5.45-10.43l-5.2-10.56L410.56,427c-1.71-3.53-3.33-7.1-5-10.65-3.29-7.12-6.72-14.17-9.81-21.38l-4.68-10.79c-1.55-3.6-3.16-7.17-4.61-10.82q-4.48-10.87-8.85-21.78,4.83,10.71,9.58,21.47c1.55,3.59,3.26,7.12,4.91,10.67l5,10.64c3.23,7.13,6.77,14.12,10.18,21.17,1.73,3.51,3.4,7,5.18,10.54l5.37,10.44L423.19,447l5.51,10.37c3.69,6.9,7.32,13.84,11.21,20.63,7.57,13.7,15.48,27.22,23.59,40.6l6.1,10c2,3.35,4,6.7,6.18,10l6.31,9.9c2.1,3.3,4.19,6.61,6.4,9.84l6.52,9.77,3.26,4.88,3.35,4.81,6.72,9.63,3.35,4.82,3.45,4.75c4.6,6.33,9.14,12.71,13.94,18.89l7.12,9.34,7.32,9.19C553.16,646.75,563.46,658.54,573.81,670.32Z" transform="translate(-22.51 -33.49)"/><path class="cls-29" d="M435.31,472.54c-.34-5.44-.39-10.85-.33-16.27,0-2.7.11-5.41.17-8.11l.34-8.11L436,432c.23-2.7.39-5.4.67-8.09.5-5.39,1.11-10.78,2-16.15.35,5.44.39,10.86.33,16.27,0,2.71-.11,5.41-.17,8.11l-.34,8.11-.5,8.1c-.22,2.69-.39,5.39-.67,8.08C436.81,461.78,436.21,467.17,435.31,472.54Z" transform="translate(-22.51 -33.49)"/><path class="cls-29" d="M464.26,522.81c-4.86-.73-9.64-1.75-14.39-2.87-2.38-.53-4.73-1.17-7.1-1.76l-7.06-1.91-7-2.07c-2.32-.75-4.66-1.44-7-2.24-4.63-1.54-9.24-3.18-13.76-5.12,4.86.73,9.64,1.75,14.39,2.87,2.39.53,4.74,1.17,7.11,1.75l7.06,1.92,7,2.08c2.32.74,4.66,1.44,7,2.24C455.14,519.24,459.74,520.88,464.26,522.81Z" transform="translate(-22.51 -33.49)"/><path class="cls-29" d="M514.74,598.46c-5.75.62-11.5.95-17.25,1.18-2.87.14-5.75.18-8.62.26l-8.63.09-8.62-.07c-2.87-.08-5.75-.1-8.62-.24-5.75-.22-11.5-.54-17.25-1.16,5.75-.63,11.5-1,17.24-1.18,2.88-.14,5.75-.17,8.63-.26l8.62-.09,8.63.08c2.87.08,5.74.1,8.62.24C503.24,597.52,509,597.84,514.74,598.46Z" transform="translate(-22.51 -33.49)"/><path class="cls-29" d="M503.1,582.23c.88-8.48,2.06-16.92,3.34-25.34.61-4.21,1.33-8.4,2-12.61l2.16-12.58,2.32-12.55c.83-4.18,1.61-8.36,2.49-12.53,1.71-8.34,3.53-16.66,5.64-24.93-.88,8.49-2,16.93-3.33,25.34-.61,4.22-1.33,8.41-2,12.61l-2.16,12.59-2.33,12.55c-.83,4.17-1.6,8.36-2.49,12.52C507,565.64,505.21,574,503.1,582.23Z" transform="translate(-22.51 -33.49)"/><path class="cls-29" d="M550.92,644.54c1.33-8.2,3-16.34,4.66-24.45.84-4.07,1.77-8.11,2.66-12.16l2.81-12.11,3-12.07c1.05-4,2-8,3.14-12,2.14-8,4.39-16,6.93-23.91-1.32,8.2-2.94,16.34-4.65,24.46-.83,4.06-1.77,8.1-2.66,12.15L564,596.52l-3,12.07c-1,4-2,8-3.14,12C555.71,628.64,553.46,636.63,550.92,644.54Z" transform="translate(-22.51 -33.49)"/><path class="cls-29" d="M557.89,652.68c-4.34,1.3-8.74,2.31-13.14,3.22-2.2.48-4.42.85-6.63,1.28l-6.65,1.11c-4.44.7-8.9,1.27-13.38,1.75s-9,.84-13.51.91c4.35-1.31,8.74-2.32,13.15-3.23s8.84-1.71,13.28-2.39l6.68-1c2.23-.27,4.46-.58,6.7-.79C548.86,653.12,553.36,652.75,557.89,652.68Z" transform="translate(-22.51 -33.49)"/><path class="cls-31" d="M1087.29,809.51c-21.48-28.27-58.71-19.33-83.16-43-13.4-13-16.91-27.14-30.81-39.17-29-25.08-72.48-10.47-106.69-18.09-23.07-5.14-42.88-27.85-65.49-35.78-23.37-8.2-48.33-.37-72.07-6.46-28.35-7.27-53.16-29.24-80.47-41.62-44.45-20.15-95.54-13.16-135.9,18.6-41.15,32.38-71.77,88.88-117.81,106.55-19.7,7.56-40.61,7.21-60.85,11.67s-49.85,24.47-60.79,47.33Z" transform="translate(-22.51 -33.49)"/></g><g id="Layer_27" data-name="Layer 27"><polygon class="cls-32" points="376.31 662.9 373.08 679.23 370.84 690.57 368.64 701.73 366.4 713.07 353.98 775.9 204.64 775.9 192.22 713.07 189.98 701.73 187.78 690.57 185.54 679.23 182.31 662.9 376.31 662.9"/><polygon class="cls-33" points="373.08 679.23 370.84 690.57 187.78 690.57 185.54 679.23 373.08 679.23"/><polygon class="cls-33" points="368.64 701.73 366.4 713.07 192.22 713.07 189.98 701.73 368.64 701.73"/></g><g id="_2" data-name="2"><path class="cls-34" d="M1087.76,758.22a15,15,0,0,1,5.49-1c8.75,0,14.54,6.57,11.45,16.83-2.68,8.88-12,15.37-20.75,15.37a13,13,0,0,1-1.85-.12" transform="translate(-22.51 -33.49)"/><path class="cls-35" d="M1088.7,756.4v0c0,.31,0,.62,0,.93v.72c0,.65,0,1.31,0,1.95s0,1.17-.07,1.76,0,1,0,1.43q0,1.13-.12,2.22c-.05.94-.12,1.87-.19,2.78a78.9,78.9,0,0,1-4.26,21.16,38.38,38.38,0,0,1-5,9.48,28.6,28.6,0,0,1-3.79,4.2,1.87,1.87,0,0,1-1.27.49h-33.95a1.86,1.86,0,0,1-1-.29c-10-6.31-14.78-19.52-16.38-35-.09-.91-.17-1.84-.25-2.78-.22-2.93-.35-6-.39-9a1.9,1.9,0,0,1,1.89-1.92h63A1.9,1.9,0,0,1,1088.7,756.4Z" transform="translate(-22.51 -33.49)"/><path class="cls-36" d="M1085,809.64h-57.61a17.87,17.87,0,0,1-10.57-3.46l-3.6-2.63h85.94l-3.59,2.63A17.87,17.87,0,0,1,1085,809.64Z" transform="translate(-22.51 -33.49)"/><path class="cls-37" d="M1088.7,756.4v1c0,.24,0,.49,0,.72,0,.65,0,1.31,0,1.95s0,1.17-.07,1.76,0,1,0,1.43q0,1.13-.12,2.22c-.05.94-.12,1.87-.19,2.78a78.9,78.9,0,0,1-4.26,21.16,38.38,38.38,0,0,1-5,9.48c-27.87-.23-38.72-9.77-41.92-30.64-.14-.9-.27-1.83-.38-2.78-.4-3.37-.62-7-.7-10.92h50.89A1.9,1.9,0,0,1,1088.7,756.4Z" transform="translate(-22.51 -33.49)"/><path class="cls-38" d="M1088.4,765.44c-.05.94-.12,1.87-.19,2.78h-65.7c-.09-.91-.17-1.84-.25-2.78Z" transform="translate(-22.51 -33.49)"/></g><g id="_1" data-name="1"><path class="cls-39" d="M1053.87,704.83a27.77,27.77,0,0,0-2.3,10.66,21.9,21.9,0,0,0,.6,5.31,30.55,30.55,0,0,0,1.75,5.11c1.36,3.39,3.14,6.81,3.67,10.7a16,16,0,0,1-.18,5.77,9,9,0,0,1-2.8,4.91,9.83,9.83,0,0,0,1.83-5.07,17.45,17.45,0,0,0-.39-5.34,27.67,27.67,0,0,0-1.74-5.1l-2.24-5.1a31.27,31.27,0,0,1-1.75-5.48,20.41,20.41,0,0,1-.3-5.78A21.29,21.29,0,0,1,1053.87,704.83Z" transform="translate(-22.51 -33.49)"/><path class="cls-40" d="M1067.62,714.51a21.24,21.24,0,0,0-1.41,7.61,18.18,18.18,0,0,0,1.71,7.3c1,2.4,2.23,4.87,2.58,7.7a11.47,11.47,0,0,1-.21,4.17,6.3,6.3,0,0,1-2.14,3.48c1.5-2.27,1.36-5,.81-7.38a21.15,21.15,0,0,0-1.27-3.57l-1.61-3.63a22.44,22.44,0,0,1-1.25-4,14.76,14.76,0,0,1-.17-4.19A14.57,14.57,0,0,1,1067.62,714.51Z" transform="translate(-22.51 -33.49)"/><path class="cls-41" d="M1041.94,717a21.24,21.24,0,0,0-1.41,7.61,18,18,0,0,0,1.71,7.3c1,2.4,2.23,4.87,2.57,7.7a11.25,11.25,0,0,1-.2,4.17,6.35,6.35,0,0,1-2.14,3.48c1.5-2.27,1.35-5,.81-7.38a21.2,21.2,0,0,0-1.28-3.57l-1.61-3.63a22.42,22.42,0,0,1-1.24-4,14.85,14.85,0,0,1,2.79-11.73Z" transform="translate(-22.51 -33.49)"/></g><g id="Layer_18" data-name="Layer 18"><path class="cls-42" d="M809.78,697.6H579.89V657.27c89.3-3.2,180.37-6.87,227.18,1.26a71.25,71.25,0,0,0,2.71,6.74Z" transform="translate(-22.51 -33.49)"/></g><g id="Layer_14" data-name="Layer 14"><path class="cls-43" d="M843.23,652.77c-117.6,39.41-221.09,37.92-312,0l27,89.5,285,3.5Z" transform="translate(-22.51 -33.49)"/><polyline class="cls-44" points="673.45 646.48 681.05 660.45 641.72 660.45 648.95 647.16"/><line class="cls-44" x1="661.39" y1="660.45" x2="661.39" y2="707.53"/></g><g id="Layer_16" data-name="Layer 16"><path class="cls-45" d="M648.15,756.77l5,51.5c85-18.21,167.35-43.42,247.15-73.69,8.76-3.32,16.6-8.48,24-14.24,46.21-36.07,10.33-101.68-48.13-85.07C845,643.78,735.43,708.22,648.15,756.77Z" transform="translate(-22.51 -33.49)"/><path class="cls-46" d="M854.41,751.32c-63.65,13.8-128,6.21-169.68-15.05l-36.58,20.5,5,51.5C723.25,793.25,792.13,772.87,854.41,751.32Z" transform="translate(-22.51 -33.49)"/><polygon class="cls-47" points="629.65 724.28 625.65 723.28 580.4 745.78 591.9 776.53 641.4 758.78 629.65 724.28"/><path class="cls-48" d="M625.39,806.31a4.39,4.39,0,0,1-3.12,4.17,280,280,0,0,0-28.54,10.29,67,67,0,0,0-14.27,7.59C569.14,836,563.09,847.94,552.33,855c-.86.56-1.74,1.1-2.66,1.58s-1.66.85-2.53,1.23h0a36.1,36.1,0,0,1-19.89,2.74l-.89-.15a24.88,24.88,0,0,1-6.17-2.06c-16.1-7.72-22.64-27.62-13.56-43a29.25,29.25,0,0,1,9.88-10c.42-.27.86-.53,1.3-.78a61.22,61.22,0,0,1,10.71-4.61A128.35,128.35,0,0,1,548,795c8.66-1.49,17.59-2.12,25.77-5.33,9.56-3.75,17.26-10.63,24.82-17.7a5.89,5.89,0,0,1,6.07-1.23,33.41,33.41,0,0,1,5.39,2.51c9.73,5.67,14.36,15.54,15.17,28.56C625.35,803.26,625.39,804.76,625.39,806.31Z" transform="translate(-22.51 -33.49)"/><path class="cls-49" d="M633.06,796.33a4.94,4.94,0,0,1-3.79,4.95,50.05,50.05,0,0,1-8,.69c-11.19.77-21.2,6.95-30.5,13.22-5.57,3.76-11.19,7.67-17.59,9.71a23.45,23.45,0,0,1-12.15.41,9.61,9.61,0,0,1-6-14.25,22.75,22.75,0,0,1,5.86-6.35c5-3.67,11-5.65,16.61-8.15a93.22,93.22,0,0,0,25.82-17c4-3.71,7.82-7.89,12.57-10.4a4.85,4.85,0,0,1,5.46.72C628.63,776.32,632.84,786.5,633.06,796.33Z" transform="translate(-22.51 -33.49)"/><path class="cls-50" d="M548.64,853.13a35.05,35.05,0,0,1-1.5,4.69h0a36.1,36.1,0,0,1-19.89,2.74l-.89-.15a24.88,24.88,0,0,1-6.17-2.06c-16.1-7.72-22.64-27.62-13.56-43a29.25,29.25,0,0,1,9.88-10c1,0,1.89.13,2.81.24C542,808.46,553.58,833.15,548.64,853.13Z" transform="translate(-22.51 -33.49)"/><path class="cls-51" d="M548.64,853.13a35.05,35.05,0,0,1-1.5,4.69h0a36.1,36.1,0,0,1-19.89,2.74l-.89-.15a24.88,24.88,0,0,1-6.17-2.06c-16.1-7.72-22.64-27.62-13.56-43a29.25,29.25,0,0,1,9.88-10c1,0,1.89.13,2.81.24C496.22,837.09,525.5,857.24,548.64,853.13Z" transform="translate(-22.51 -33.49)"/><line class="cls-52" x1="529.98" y1="767.57" x2="545.83" y2="797.88"/><line class="cls-52" x1="538.16" y1="765.26" x2="552.59" y2="793.69"/><line class="cls-52" x1="545.83" y1="762.37" x2="559.57" y2="789.52"/><line class="cls-52" x1="552.69" y1="759.85" x2="566.71" y2="786.36"/><line class="cls-52" x1="560.61" y1="756.64" x2="573.92" y2="781.98"/><path class="cls-52" d="M591.23,782.59c0,.3,24.71,22.18,17.51,45a13.14,13.14,0,0,1-11.9,9.29c-5.52.18-9.62-3.11-11.19-9.95a22.51,22.51,0,0,1-.19-8.54Z" transform="translate(-22.51 -33.49)"/><path class="cls-52" d="M591.09,782.46s35.28,6.85,51.72,56.88" transform="translate(-22.51 -33.49)"/><path class="cls-52" d="M591.22,782.77s21.84,10,32.14,46.26" transform="translate(-22.51 -33.49)"/></g><g id="Layer_16_copy" data-name="Layer 16 copy"><polygon class="cls-53" points="694.22 725.28 698.22 724.28 743.47 746.78 731.97 777.53 682.47 759.78 694.22 725.28"/><path class="cls-54" d="M720.73,757.77l-5,51.5c-85-18.21-167.35-43.42-247.15-73.69-8.76-3.32-16.6-8.48-24-14.24-46.21-36.07-10.33-101.68,48.13-85.07C523.93,644.78,633.45,709.22,720.73,757.77Z" transform="translate(-22.51 -33.49)"/><path class="cls-55" d="M715.73,809.27l2.15-22.22c-16.29,7.29-51,8.6-76.88,4.27Q677,801,715.73,809.27Z" transform="translate(-22.51 -33.49)"/><path class="cls-56" d="M743.49,807.31a4.37,4.37,0,0,0,3.12,4.17,280,280,0,0,1,28.54,10.29,67,67,0,0,1,14.27,7.59c10.32,7.62,16.37,19.58,27.13,26.65.86.56,1.74,1.1,2.66,1.58s1.66.85,2.53,1.23h0a36.1,36.1,0,0,0,19.89,2.74l.89-.15a24.88,24.88,0,0,0,6.17-2.06c16.1-7.72,22.64-27.62,13.56-43a29.25,29.25,0,0,0-9.88-10c-.43-.27-.86-.53-1.3-.78a61.22,61.22,0,0,0-10.71-4.61,128.65,128.65,0,0,0-19.52-5c-8.66-1.49-17.59-2.12-25.77-5.33-9.56-3.75-17.26-10.63-24.82-17.7a5.89,5.89,0,0,0-6.07-1.23,33.41,33.41,0,0,0-5.39,2.51c-9.73,5.67-14.36,15.54-15.17,28.56C743.53,804.26,743.49,805.76,743.49,807.31Z" transform="translate(-22.51 -33.49)"/><path class="cls-57" d="M735.82,797.33a4.94,4.94,0,0,0,3.79,4.95,50.05,50.05,0,0,0,8,.69c11.19.77,21.2,6.95,30.5,13.22,5.57,3.76,11.19,7.67,17.59,9.71a23.45,23.45,0,0,0,12.15.41,9.61,9.61,0,0,0,6-14.25,22.75,22.75,0,0,0-5.86-6.35c-5-3.67-11-5.65-16.61-8.15a93.22,93.22,0,0,1-25.82-17c-4-3.71-7.82-7.89-12.57-10.4a4.85,4.85,0,0,0-5.46.72C740.25,777.32,736,787.5,735.82,797.33Z" transform="translate(-22.51 -33.49)"/><path class="cls-50" d="M820.24,854.13a35.05,35.05,0,0,0,1.5,4.69h0a36.1,36.1,0,0,0,19.89,2.74l.89-.15a24.88,24.88,0,0,0,6.17-2.06c16.1-7.72,22.64-27.62,13.56-43a29.25,29.25,0,0,0-9.88-10c-1,0-1.89.13-2.81.24C826.86,809.46,815.3,834.15,820.24,854.13Z" transform="translate(-22.51 -33.49)"/><path class="cls-51" d="M820.24,854.13a35.05,35.05,0,0,0,1.5,4.69h0a36.1,36.1,0,0,0,19.89,2.74l.89-.15a24.88,24.88,0,0,0,6.17-2.06c16.1-7.72,22.64-27.62,13.56-43a29.25,29.25,0,0,0-9.88-10c-1,0-1.89.13-2.81.24C872.66,838.09,843.38,858.24,820.24,854.13Z" transform="translate(-22.51 -33.49)"/><line class="cls-52" x1="793.89" y1="768.57" x2="778.03" y2="798.88"/><line class="cls-52" x1="785.7" y1="766.26" x2="771.27" y2="794.69"/><line class="cls-52" x1="778.03" y1="763.37" x2="764.29" y2="790.52"/><line class="cls-52" x1="771.17" y1="760.85" x2="757.16" y2="787.36"/><line class="cls-52" x1="763.26" y1="757.64" x2="749.94" y2="782.98"/><path class="cls-52" d="M777.65,783.59c0,.3-24.71,22.18-17.51,45a13.14,13.14,0,0,0,11.9,9.29c5.52.18,9.62-3.11,11.19-9.95a22.51,22.51,0,0,0,.19-8.54Z" transform="translate(-22.51 -33.49)"/><path class="cls-52" d="M777.79,783.46s-35.28,6.85-51.72,56.88" transform="translate(-22.51 -33.49)"/><path class="cls-52" d="M777.66,783.77s-21.84,10-32.14,46.26" transform="translate(-22.51 -33.49)"/></g><g id="Layer_7" data-name="Layer 7"><path class="cls-58" d="M809.78,665.27c-41-19-128.6,3.41-208.8,19.75l-15.84-22.75-4.91,9.5-4.58-2.5c3.58-25.47,3.91-67.67,0-106.91H801.28C798.6,605,799.21,642.64,809.78,665.27Z" transform="translate(-22.51 -33.49)"/></g><g id="Layer_4" data-name="Layer 4"><path class="cls-58" d="M626.4,577.36,488.46,635.53a33.41,33.41,0,0,1-42.43-15h0a42,42,0,0,1,2.54-43.75l118.3-170.18a69.91,69.91,0,0,1,49.43-29.64,614,614,0,0,1,139.36-.23,70.37,70.37,0,0,1,50.18,30.17l116,169.89A37.4,37.4,0,0,1,914.4,627h0A36.44,36.44,0,0,1,884,634.24L744.4,604.36Z" transform="translate(-22.51 -33.49)"/><line class="cls-59" x1="724.48" y1="504.46" x2="831.06" y2="531.7"/><line class="cls-59" x1="599.73" y1="477.03" x2="496.4" y2="517.03"/><path class="cls-60" d="M732.15,374.11a46.38,46.38,0,0,1-92.75,0" transform="translate(-22.51 -33.49)"/><path class="cls-61" d="M800.28,616.32l-60-13s2.11-11.1-.26-12.51c-3.18-1.88-7.66-4.09-11.21-4.09H627.41l-1-9.35-48.34,20.38a528.05,528.05,0,0,1-.71,55l43.74-45.66v4a7.12,7.12,0,0,0,7.12,7.12H739a7.11,7.11,0,0,0,7.11-7.12V606l63.69,59.28C803.84,652,801,634.4,800.28,616.32Z" transform="translate(-22.51 -33.49)"/></g><g id="Layer_5" data-name="Layer 5"><path class="cls-62" d="M735.15,606.12H633.76a8.5,8.5,0,0,1-8.51-7.89l-9.08-133.5a8.49,8.49,0,0,1,8.51-9H744.23a8.49,8.49,0,0,1,8.51,9l-9.08,133.5A8.5,8.5,0,0,1,735.15,606.12Z" transform="translate(-22.51 -33.49)"/><path class="cls-63" d="M749.63,464.58l-8.87,131.34a8.34,8.34,0,0,1-8.32,7.77H633.35a7.64,7.64,0,0,1-1.36-.12,8.32,8.32,0,0,1-7-7.65l-8.87-131.34a8.33,8.33,0,0,1,8.31-8.89H741.32A8.33,8.33,0,0,1,749.63,464.58Z" transform="translate(-22.51 -33.49)"/><path class="cls-64" d="M749.63,464.58l-8.87,131.34a8.34,8.34,0,0,1-8.32,7.77H633.35a7.64,7.64,0,0,1-1.36-.12c24-35.29,85-125.16,99.33-147.88h10A8.33,8.33,0,0,1,749.63,464.58Z" transform="translate(-22.51 -33.49)"/></g><g id="wiw"><circle class="cls-65" cx="660.27" cy="472.51" r="18.3"/><ellipse class="cls-50" cx="659.67" cy="472.51" rx="17.7" ry="18.3"/><polygon class="cls-66" points="656.4 487.29 657.78 470.75 663.66 470.75 662.28 487.27 656.4 487.29"/><path class="cls-67" d="M671,514.17l1.31-15.77h2.43a3.19,3.19,0,0,1,3.17,3.45l-1.33,15.92h-2.26A3.33,3.33,0,0,1,671,514.17Z" transform="translate(-22.51 -33.49)"/><path class="cls-67" d="M687,517.75l1.3-15.66a4,4,0,0,1,4-3.69h2.18L693.22,514a4.09,4.09,0,0,1-4.12,3.76Z" transform="translate(-22.51 -33.49)"/><path class="cls-68" d="M685.28,491.21l-6.54,2,2.09,1.8-.2,1.05c-.06.31,1.48.89,3.44,1.28s3.6.46,3.66.15l.2-1.05,2.63-.88Zm2.1,6.15c0,.25-1.52.17-3.27-.18s-3.14-.85-3.09-1.1,1.52-.18,3.27.18S687.43,497.1,687.38,497.36Zm-6.29-3c.09-.73,2.25-.92,4.1-.46s3,1.35,2.76,1.86C687.11,494.38,682.74,493.48,681.09,494.37Z" transform="translate(-22.51 -33.49)"/><path class="cls-68" d="M689.12,497.05l.21-1.23-.2,0-.22,1.23a.33.33,0,0,0-.27.32.32.32,0,0,0,.32.32.32.32,0,0,0,.32-.32A.34.34,0,0,0,689.12,497.05Z" transform="translate(-22.51 -33.49)"/><path class="cls-66" d="M687.57,499.6a3.93,3.93,0,1,1-6-3.35,19.68,19.68,0,0,1,5.19,1A3.92,3.92,0,0,1,687.57,499.6Z" transform="translate(-22.51 -33.49)"/></g><g id="Layer_6" data-name="Layer 6"><path class="cls-53" d="M748,541l-16.76-13.09a11,11,0,0,0-5.81-2.29l-43.34-3.79a2.53,2.53,0,0,0-2.64,1.75,14,14,0,0,0-.53,7.75,11.5,11.5,0,0,0-1.5,9.67,17.68,17.68,0,0,0-.42,11.91,21.42,21.42,0,0,0-1.26,8.21,4.16,4.16,0,0,0,2.47,3.36l66.23,29.2Z" transform="translate(-22.51 -33.49)"/><line class="cls-69" x1="656.9" y1="498.04" x2="686.52" y2="505.62"/><line class="cls-69" x1="655.56" y1="507.83" x2="686.02" y2="518.99"/><line class="cls-69" x1="655.05" y1="519.71" x2="686.02" y2="531.43"/></g><g id="Layer_8" data-name="Layer 8"><path class="cls-53" d="M714.4,347.35v28.4a25.1,25.1,0,0,1-25.1,25.1H681a25.11,25.11,0,0,1-25.11-25.1v-28.4Z" transform="translate(-22.51 -33.49)"/><path class="cls-47" d="M714.4,347.35v26.71a46.41,46.41,0,0,1-58.5-20.2v-6.51Z" transform="translate(-22.51 -33.49)"/></g><g id="Layer_9" data-name="Layer 9"><path class="cls-53" d="M616.4,197.37h92.75a0,0,0,0,1,0,0v92a46.37,46.37,0,0,1-46.37,46.37h0a46.37,46.37,0,0,1-46.37-46.37v-92a0,0,0,0,1,0,0Z"/><ellipse class="cls-53" cx="741.73" cy="306.19" rx="15.58" ry="11.81" transform="translate(83.19 761.96) rotate(-60)"/><path class="cls-70" d="M735.78,311.11c-1-7.75,6-13.63,12.75-11.63" transform="translate(-22.51 -33.49)"/><ellipse class="cls-53" cx="628.73" cy="306.19" rx="11.81" ry="15.58" transform="translate(-91.37 321.9) rotate(-30)"/><path class="cls-70" d="M634.68,311.11c1-7.75-5.95-13.63-12.75-11.63" transform="translate(-22.51 -33.49)"/><path class="cls-71" d="M651.69,242.75a17.4,17.4,0,0,1,16.51,1.86,41.18,41.18,0,0,1,6.4,6.33c5.78,6.44,12.26,13.28,20.3,16.25s26.63,3.92,34.5-6.46V242.86l-70.83-5.67Z" transform="translate(-22.51 -33.49)"/><path class="cls-72" d="M643.75,267.55c.77-8.15,3.47-16.79,10.16-21.49a18.3,18.3,0,0,1,17-2,42.6,42.6,0,0,1,7.91,4.67c7.32,4.92,15.42,9.06,24.18,10.08s18.27-1.48,24.11-8.09l4.43,49.58c11.62-23.86,20.57-50.42,19.65-86.92-4.58-1.59-10.5,0-10.5,0,2.59-10.25,0-20.5,0-20.5-9.37-3.13-20.25,1-20.25,1,.44-5.56.15-11.29-2.37-15.13-25.06,17.5-100.25,29.63-90.7,81.65,1,9.1,6.7,27.73,11.63,39.9Z" transform="translate(-22.51 -33.49)"/></g><g id="Layer_12" data-name="Layer 12"><path class="cls-73" d="M701.3,339.11c-2.59,4.84-8.91,8.25-16.29,8.25s-13.7-3.41-16.3-8.25" transform="translate(-22.51 -33.49)"/></g><g id="Layer_11" data-name="Layer 11"><path class="cls-74" d="M692.71,324.8H678.12a1.88,1.88,0,0,1-1.81-2.38L681.16,305a1.88,1.88,0,0,1,1.81-1.37h4.89a1.86,1.86,0,0,1,1.8,1.37l4.85,17.41A1.88,1.88,0,0,1,692.71,324.8Z" transform="translate(-22.51 -33.49)"/></g><g id="Layer_22" data-name="Layer 22"><path class="cls-72" d="M660.61,302.43a3.59,3.59,0,0,0,1.6,3,4.49,4.49,0,0,0,4.83,0,3.59,3.59,0,0,0,1.64-3V301a3.57,3.57,0,0,0-1.6-3,4.43,4.43,0,0,0-2.41-.72,4.36,4.36,0,0,0-2.42.69,3.58,3.58,0,0,0-1.64,3Z" transform="translate(-22.51 -33.49)"/></g><g id="Layer_21" data-name="Layer 21"><path class="cls-72" d="M703.61,302.43a3.59,3.59,0,0,0,1.6,3,4.49,4.49,0,0,0,4.83,0,3.59,3.59,0,0,0,1.64-3V301a3.57,3.57,0,0,0-1.6-3,4.43,4.43,0,0,0-2.41-.72,4.36,4.36,0,0,0-2.42.69,3.58,3.58,0,0,0-1.64,3Z" transform="translate(-22.51 -33.49)"/></g><g id="Layer_10" data-name="Layer 10"><path class="cls-50" d="M709.15,282.11a20.76,20.76,0,0,0-20.66,19h-6.18a20.75,20.75,0,1,0,0,3.5h6.18a20.74,20.74,0,1,0,20.66-22.5Zm-47.5,38a17.25,17.25,0,1,1,17.25-17.25A17.27,17.27,0,0,1,661.65,320.11Zm47.5,0a17.25,17.25,0,1,1,17.25-17.25A17.27,17.27,0,0,1,709.15,320.11Z" transform="translate(-22.51 -33.49)"/><rect class="cls-72" x="695.61" y="271.03" width="25.4" height="6.93" rx="3.47" ry="3.47" transform="translate(26.63 -136.55) rotate(8.62)"/><rect class="cls-72" x="649.61" y="271.03" width="25.4" height="6.93" rx="3.47" ry="3.47" transform="translate(1335.77 413.14) rotate(171.38)"/></g><g id="Layer_29" data-name="Layer 29"><ellipse class="cls-75" cx="1088.7" cy="655.41" rx="14.42" ry="7.33" transform="translate(-204.38 643.72) rotate(-32.03)"/><ellipse class="cls-76" cx="1016.53" cy="447.89" rx="18.5" ry="11.11" transform="translate(-105.3 573.85) rotate(-32.03)"/><ellipse class="cls-77" cx="525.57" cy="295.22" rx="6.64" ry="11.05" transform="translate(32.01 637.88) rotate(-67.93)"/><ellipse class="cls-78" cx="504.58" cy="230.86" rx="4.89" ry="8.15" transform="translate(78.55 578.25) rotate(-67.93)"/><ellipse class="cls-79" cx="1105.54" cy="617.05" rx="9.49" ry="4.83" transform="translate(-181.47 646.81) rotate(-32.03)"/><ellipse class="cls-80" cx="1023.79" cy="394.78" rx="9.49" ry="4.83" transform="translate(-46.02 688.64) rotate(-38.44)"/><ellipse class="cls-81" cx="822.75" cy="212.49" rx="18.5" ry="11.11" transform="translate(-9.95 435.23) rotate(-32.03)"/><ellipse class="cls-82" cx="830.01" cy="159.38" rx="9.49" ry="4.83" transform="translate(58.33 517.13) rotate(-38.44)"/><ellipse class="cls-83" cx="394.88" cy="633.93" rx="3.95" ry="7.77" transform="translate(-368.34 504.84) rotate(-50.73)"/><ellipse class="cls-84" cx="369.43" cy="558.08" rx="5.21" ry="7.77" transform="translate(-318.97 457.3) rotate(-50.73)"/><ellipse class="cls-85" cx="982.83" cy="323.61" rx="9.49" ry="5.52" transform="translate(80.56 834.82) rotate(-49.99)"/><ellipse class="cls-86" cx="401.36" cy="671.3" rx="7.63" ry="13.12" transform="translate(-401.83 590.21) rotate(-55.64)"/><ellipse class="cls-87" cx="145.58" cy="647.39" rx="5.91" ry="11.62" transform="translate(-481.43 340.25) rotate(-52.97)"/><ellipse class="cls-88" cx="133.95" cy="622.41" rx="3.95" ry="7.77" transform="translate(-466.11 321.03) rotate(-52.97)"/><ellipse class="cls-89" cx="128.21" cy="239.49" rx="7.33" ry="11.62" transform="translate(-162.7 164.13) rotate(-52.97)"/><ellipse class="cls-90" cx="117.43" cy="213.39" rx="3.95" ry="7.77" transform="translate(-146.15 145.14) rotate(-52.97)"/><ellipse class="cls-91" cx="294.31" cy="106.05" rx="4.87" ry="7.77" transform="translate(9.9 243.65) rotate(-52.97)"/></g></svg>