<svg id="bio" xmlns="http://www.w3.org/2000/svg" viewBox="0 0 402.12 435.47"><defs><style>.cls-1{fill:none;stroke:#fff;stroke-linecap:round;stroke-miterlimit:10;stroke-width:10px;}.cls-2{fill:#fff;}</style></defs><title>bio</title><path class="cls-1" d="M578.82,77.8c108.28,0,196.06,87.78,196.06,196.06S687.1,469.93,578.82,469.93,382.76,382.15,382.76,273.86A195.89,195.89,0,0,1,473.4,108.53" transform="translate(-377.76 -39.46)"/><path class="cls-2" d="M395.31,206.08a119.12,119.12,0,0,0,49.84.82,84.8,84.8,0,0,0,41.9-22.49A70.71,70.71,0,0,0,501.39,165c4-8.17,6.2-17.14,8.62-25.87s5-17.73,8.93-26c3.65-7.6,8.46-14.61,13.27-21.51,4.93-7.09,10.13-14,14.85-21.22A153.14,153.14,0,0,0,559.27,47c.89-2.08.92-4.35-.78-6.06a5.13,5.13,0,0,0-6.06-.78c-.27.15-.55.27-.81.41-1.06.58,1.13-.41-.1,0-1.06.39-2.11.79-3.18,1.15-2.67.9-5.37,1.7-8.07,2.48-7.43,2.14-14.92,4.07-22.41,6-13.67,3.49-27.43,6.65-41.06,10.31C456.74,65.87,437.52,74.84,422,88.81a100.15,100.15,0,0,0-30.37,50.81,136.59,136.59,0,0,0-4,33.81c.06,9.78,1.1,19.85,4.24,29.15,2.05,6.07,11.71,3.47,9.64-2.65C396,183.61,396.6,164.87,400,148a101,101,0,0,1,8.81-26.45,89.41,89.41,0,0,1,17.06-22.68c14-13.75,31.89-22.58,50.63-27.95,13.47-3.85,27.2-6.87,40.78-10.3,8.27-2.09,16.54-4.21,24.74-6.55,5.13-1.46,10.8-2.75,15.5-5.37l-6.85-6.84A155.79,155.79,0,0,1,540.1,62.73c-3.65,5.89-7.78,11.48-11.79,17.13-4.74,6.66-9.49,13.34-13.72,20.34a115.2,115.2,0,0,0-10.91,24.89c-4.9,15.53-7.22,32.47-17.6,45.56a74.88,74.88,0,0,1-36.54,24.88c-16.46,4.83-34.91,4.77-51.57.9C391.71,195,389,204.62,395.31,206.08Z" transform="translate(-377.76 -39.46)"/><path class="cls-1" d="M727.8,401.32l-1.71-77.77a20.2,20.2,0,0,0-20.2-19.76h0a9.88,9.88,0,0,1-9.88-9.88V281a15.48,15.48,0,0,0-15.48-15.47H649.86A15.85,15.85,0,0,1,634,249.72h0a15.85,15.85,0,0,1,15.85-15.85H655a9.35,9.35,0,0,0,9.35-9.35V213a9.35,9.35,0,0,0-9.35-9.35H652.1a32.44,32.44,0,0,1-32.45-32.44h0a32.45,32.45,0,0,1,32.45-32.45h68" transform="translate(-377.76 -39.46)"/><path class="cls-1" d="M571,469.93V447.69a23.49,23.49,0,0,1,23.49-23.49h7a16.86,16.86,0,0,0,16.85-16.85h0a16.86,16.86,0,0,0-16.85-16.86h-3.1a10.62,10.62,0,0,1-10.63-10.62V354.69a25.17,25.17,0,0,0-25.17-25.17h0a25.17,25.17,0,0,0-25.18,25.17h0a5.31,5.31,0,0,1-5.31,5.32H505.68a15.24,15.24,0,0,0-15.24,15.24v10.58a33.56,33.56,0,0,1-11.37,25.49c-7.8,6.71-17.71,9.65-27.87,11.39" transform="translate(-377.76 -39.46)"/></svg>