<svg id="chemi" xmlns="http://www.w3.org/2000/svg" viewBox="0 0 435.73 436.62"><defs><style>.cls-1,.cls-2{fill:none;stroke:#fff;stroke-miterlimit:10;stroke-width:10px;}.cls-2{stroke-linecap:round;}</style></defs><title>che</title><circle class="cls-1" cx="382.73" cy="52.99" r="47.99"/><circle class="cls-1" cx="39.03" cy="300.84" r="34.03"/><circle class="cls-1" cx="94.26" cy="95.15" r="27.68"/><circle class="cls-1" cx="231.39" cy="369.4" r="27.68"/><circle class="cls-1" cx="403.05" cy="403.94" r="27.68"/><circle class="cls-1" cx="217.48" cy="219.45" r="61.9"/><path class="cls-2" d="M1627.87,220.34a41.25,41.25,0,0,1,41.25,41.25" transform="translate(-1415.13 -37.72)"/><path class="cls-2" d="M1792,69a27.83,27.83,0,0,1,27.82,27.82" transform="translate(-1415.13 -37.72)"/><path class="cls-2" d="M1448.7,328a15.63,15.63,0,0,1,15.64,15.63" transform="translate(-1415.13 -37.72)"/><line class="cls-1" x1="260.77" y1="175.21" x2="349.44" y2="87.54"/><line class="cls-1" x1="260.77" y1="263.69" x2="383.43" y2="384.41"/><line class="cls-1" x1="223.51" y1="281.03" x2="229.1" y2="341.72"/><line class="cls-1" x1="70.17" y1="287.11" x2="160.62" y2="243.94"/><line class="cls-1" x1="114.12" y1="114.42" x2="174.2" y2="175.21"/></svg>