<svg width="60" height="60" viewBox="0 0 60 60" fill="none" xmlns="http://www.w3.org/2000/svg">
<path d="M34.0266 50.625L21.2503 30.8751V15C21.2503 14.3097 20.6906 13.75 20.0003 13.75H13.7503C13.06 13.75 12.5003 14.3097 12.5003 15V30.91L0.851621 50.7126C0.294395 51.6597 0.000488285 52.7385 0.000488285 53.8375C0.000371097 57.2409 2.75943 59.9999 6.16279 60H28.9253C30.0952 59.9997 31.24 59.6617 32.2225 59.0267C35.0407 57.2048 35.8485 53.4433 34.0266 50.625ZM28.9253 57.5001H6.16279C5.5076 57.5011 4.864 57.3264 4.29928 56.9941C2.556 55.9682 1.97439 53.7234 3.00025 51.9801L14.8279 31.8838C14.9408 31.6918 15.0004 31.473 15.0004 31.2501V16.2501H18.7504V31.2501C18.7503 31.4909 18.8197 31.7266 18.9504 31.9288L31.9254 51.9825C32.2997 52.5609 32.4989 53.2349 32.4992 53.9239C32.4997 55.8982 30.8998 57.4994 28.9253 57.5001Z" fill="white"/>
<path d="M18.0063 36.3409L15.8513 35.0747L5.23756 53.116C5.12436 53.3084 5.06471 53.5278 5.06494 53.751C5.06565 54.4414 5.62592 55.0005 6.31627 54.9996H15V52.4997H8.50006L18.0063 36.3409Z" fill="white"/>
<path d="M56.9825 28.75H37.5C34.7386 28.75 32.5 30.9886 32.5 33.75V53.7501C32.5041 57.2002 35.3 59.9959 38.75 60H50C53.4501 59.9959 56.2458 57.2001 56.2499 53.7501V36.7675L59.1174 33.9012C59.6819 33.3357 59.999 32.5694 59.9995 31.7704C60.0005 30.1033 58.6497 28.7509 56.9825 28.75ZM57.3488 32.1338L54.1163 35.3663C53.8819 35.6007 53.7501 35.9186 53.7501 36.25V53.75C53.7501 55.821 52.0711 57.5 50.0001 57.5H38.7501C36.679 57.5 35.0001 55.821 35.0001 53.75V33.75C35.0001 32.3693 36.1193 31.2501 37.5 31.2501H56.9826C57.1202 31.25 57.2522 31.3046 57.3495 31.402C57.5513 31.6042 57.5511 31.9319 57.3488 32.1338Z" fill="white"/>
<path d="M48.7505 36.25V52.5H45.0005V55H50.0005C50.6909 55 51.2506 54.4403 51.2506 53.75V36.25H48.7505Z" fill="white"/>
<path d="M35 18.105V1.25004C35 0.559687 34.4404 0 33.75 0H25C24.3097 0 23.75 0.559687 23.75 1.25004V18.4601C22.2244 18.9298 20.7569 19.5701 19.375 20.3688L20.625 22.5326C22.0936 21.6846 23.6705 21.04 25.3125 20.6163C25.8647 20.4737 26.2505 19.9754 26.25 19.4051V2.49996H32.5V19.1138C32.5002 19.7138 32.9268 20.229 33.5163 20.3413C37.8993 21.1792 41.8404 23.5514 44.6325 27.0326L46.5813 25.4675C43.6397 21.8018 39.5675 19.213 35 18.105Z" fill="white"/>
<path d="M53.1254 17.5C50.7092 17.5 48.7505 19.4588 48.7505 21.875C48.7505 24.2913 50.7093 26.2499 53.1254 26.2499C55.5417 26.2499 57.5004 24.2911 57.5004 21.875C57.5004 19.4588 55.5417 17.5 53.1254 17.5ZM53.1254 23.7501C52.0899 23.7501 51.2504 22.9107 51.2504 21.8751C51.2504 20.8395 52.0899 20.0001 53.1254 20.0001C54.161 20.0001 55.0004 20.8395 55.0004 21.8751C55.0004 22.9107 54.161 23.7501 53.1254 23.7501Z" fill="white"/>
<path d="M48.7505 8.75C46.6794 8.75 45.0005 10.4289 45.0005 12.5C45.0005 14.5711 46.6794 16.25 48.7505 16.25C50.8215 16.25 52.5005 14.5711 52.5005 12.5C52.5005 10.4289 50.8215 8.75 48.7505 8.75ZM48.7505 13.7499C48.0601 13.7499 47.5004 13.1902 47.5004 12.4999C47.5004 11.8095 48.0601 11.25 48.7505 11.25C49.4408 11.25 50.0005 11.8097 50.0005 12.5C50.0005 13.1904 49.4408 13.7499 48.7505 13.7499Z" fill="white"/>
<path d="M4.37545 10C1.95916 10 0.000488281 11.9588 0.000488281 14.375C0.000488281 16.7913 1.95916 18.75 4.37545 18.75C6.79174 18.75 8.75041 16.7913 8.75041 14.3751C8.75041 11.9588 6.79174 10 4.37545 10ZM4.37545 16.2501C3.33986 16.2501 2.50045 15.4107 2.50045 14.3751C2.50045 13.3395 3.33986 12.5001 4.37545 12.5001C5.41104 12.5001 6.25045 13.3395 6.25045 14.3751C6.25045 15.4107 5.41104 16.2501 4.37545 16.2501Z" fill="white"/>
<path d="M10 1.25C7.92895 1.25 6.25 2.92895 6.25 5C6.25 7.07105 7.92895 8.75 10 8.75C12.0711 8.75 13.75 7.07105 13.75 5C13.75 2.92895 12.0711 1.25 10 1.25ZM10 6.24992C9.30965 6.24992 8.74996 5.69023 8.74996 4.99988C8.74996 4.30965 9.30965 3.74996 10 3.74996C10.6904 3.74996 11.25 4.30965 11.25 5C11.25 5.69035 10.6904 6.24992 10 6.24992Z" fill="white"/>
<path d="M41.2505 36.25H37.5005V38.75H41.2505V36.25Z" fill="white"/>
<path d="M40.0004 41.25H37.5005V43.75H40.0004V41.25Z" fill="white"/>
<path d="M41.2505 46.25H37.5005V48.75H41.2505V46.25Z" fill="white"/>
<path d="M40.0004 51.25H37.5005V53.75H40.0004V51.25Z" fill="white"/>
<path d="M4.99996 22.5H2.5V25H4.99996V22.5Z" fill="white"/>
<path d="M8.74996 28.75H6.25V31.2499H8.74996V28.75Z" fill="white"/>
<path d="M30 33.75H27.5V36.25H30V33.75Z" fill="white"/>
<path d="M27.5 28.75H25V31.2499H27.5V28.75Z" fill="white"/>
<path d="M26.25 23.75H23.75V26.25H26.25V23.75Z" fill="white"/>
<path d="M27.5 51.25H25V53.75H27.5V51.25Z" fill="white"/>
<path d="M23.75 46.25H21.25V48.75H23.75V46.25Z" fill="white"/>
</svg>
