<svg xmlns="http://www.w3.org/2000/svg" xmlns:xlink="http://www.w3.org/1999/xlink" viewBox="0 0 439.77 444.41"><defs><style>.cls-1{fill:url(#linear-gradient);}.cls-2{fill:url(#linear-gradient-2);}.cls-3{fill:url(#linear-gradient-3);}.cls-4{fill:url(#linear-gradient-4);}</style><linearGradient id="linear-gradient" y1="179.92" x2="359.84" y2="179.92" gradientUnits="userSpaceOnUse"><stop offset="0" stop-color="#0063a6"/><stop offset="1" stop-color="#ae227a"/></linearGradient><linearGradient id="linear-gradient-2" x1="50.34" y1="218.18" x2="224.94" y2="218.18" xlink:href="#linear-gradient"/><linearGradient id="linear-gradient-3" x1="245.56" y1="404.24" x2="278.48" y2="404.24" xlink:href="#linear-gradient"/><linearGradient id="linear-gradient-4" x1="280.8" y1="233.05" x2="439.77" y2="233.05" xlink:href="#linear-gradient"/></defs><title>math</title><g id="Layer_2" data-name="Layer 2"><g id="maths"><path class="cls-1" d="M359.84,359.84H0V0ZM15,344.84H323.63L15,36.21Z"/><path class="cls-2" d="M224.94,305.48H50.34V130.87Zm-159.6-15H188.73L65.34,167.09Z"/><path class="cls-3" d="M253.07,444.41a7.51,7.51,0,0,1-7.24-9.49l17.91-65.33a7.5,7.5,0,1,1,14.47,4L260.3,438.89A7.52,7.52,0,0,1,253.07,444.41Z"/><path class="cls-4" d="M439.77,308a7.5,7.5,0,0,0-7.5-7.5H397.85L366.07,187.05A59.85,59.85,0,0,0,348.15,73.49V29.18a7.5,7.5,0,0,0-15,0V73.49A59.84,59.84,0,0,0,314,186.43L288.89,277.9a7.5,7.5,0,1,0,14.46,4l24.81-90.46a59.87,59.87,0,0,0,23.62.26l30.49,108.87H333.6a7.5,7.5,0,0,0,0,15h52.87L421,438.93a7.5,7.5,0,1,0,14.44-4.05L402,315.54h30.23A7.5,7.5,0,0,0,439.77,308ZM340.65,177.72a44.85,44.85,0,1,1,44.85-44.85A44.9,44.9,0,0,1,340.65,177.72Z"/></g></g></svg>