<svg xmlns="http://www.w3.org/2000/svg" viewBox="0 0 439.77 444.41"><defs><style>.cls-1{fill:#fff;}</style></defs><title>math</title><g id="Layer_2" data-name="Layer 2"><g id="maths"><path class="cls-1" d="M359.84,359.84H0V0ZM15,344.84H323.63L15,36.21Z"/><path class="cls-1" d="M224.94,305.48H50.34V130.87Zm-159.6-15H188.73L65.34,167.09Z"/><path class="cls-1" d="M253.07,444.41a7.51,7.51,0,0,1-7.24-9.49l17.91-65.33a7.5,7.5,0,1,1,14.47,4L260.3,438.89A7.52,7.52,0,0,1,253.07,444.41Z"/><path class="cls-1" d="M439.77,308a7.5,7.5,0,0,0-7.5-7.5H397.85L366.07,187.05A59.85,59.85,0,0,0,348.15,73.49V29.18a7.5,7.5,0,0,0-15,0V73.49A59.84,59.84,0,0,0,314,186.43L288.89,277.9a7.5,7.5,0,1,0,14.46,4l24.81-90.46a59.87,59.87,0,0,0,23.62.26l30.49,108.87H333.6a7.5,7.5,0,0,0,0,15h52.87L421,438.93a7.5,7.5,0,1,0,14.44-4.05L402,315.54h30.23A7.5,7.5,0,0,0,439.77,308ZM340.65,177.72a44.85,44.85,0,1,1,44.85-44.85A44.9,44.9,0,0,1,340.65,177.72Z"/></g></g></svg>