<svg xmlns="http://www.w3.org/2000/svg" xmlns:xlink="http://www.w3.org/1999/xlink" viewBox="0 0 440 406.99"><defs><style>.cls-1{fill:url(#linear-gradient);}.cls-2{fill:#0063a6;}.cls-3{fill:url(#linear-gradient-2);}</style><linearGradient id="linear-gradient" x1="34.98" y1="94.01" x2="440" y2="94.01" gradientUnits="userSpaceOnUse"><stop offset="0" stop-color="#0063a6"/><stop offset="1" stop-color="#ae227a"/></linearGradient><linearGradient id="linear-gradient-2" x1="0" y1="267.18" x2="440" y2="267.18" xlink:href="#linear-gradient"/></defs><title>phy</title><g id="Layer_2" data-name="Layer 2"><g id="phy"><path class="cls-1" d="M433,174H405.75V32.06h-86V25.45A14.68,14.68,0,0,0,305.1,10.78H286.83V0H121V32.06H35V88.61a7,7,0,0,0,14,0V46.06h72V79H286.83V67.34H305.1a14.67,14.67,0,0,0,14.66-14.66V46.06h72V174H364.5a7,7,0,0,0,0,14H433a7,7,0,0,0,0-14ZM272.83,65H135V14H272.83Zm32.93-12.32a.66.66,0,0,1-.66.66H286.83V24.78H305.1a.66.66,0,0,1,.66.67Z"/><path class="cls-2" d="M42,130.59a7,7,0,0,1-7-7v-14a7,7,0,0,1,14,0v14A7,7,0,0,1,42,130.59Z"/><path class="cls-3" d="M433,216H364.5a7,7,0,0,0,0,14h27.25v133.2H312.44c2.5-17.68-.47-28.85-9-34-10.82-6.56-25.46.34-33.37,5.15a27.75,27.75,0,0,0-10.51-6.69,30,30,0,0,0-16.75-.48A51.8,51.8,0,0,0,228,333.8a28.85,28.85,0,0,0-22.28-7.46,52.8,52.8,0,0,0-21.22,7,28.83,28.83,0,0,0-14-6.77,29.8,29.8,0,0,0-23.33,6.13c-7.77,6.3-12.42,16.5-13.85,30.39H49V328.79A42,42,0,0,0,49,246V200.89L13.23,131.18A7,7,0,0,0,.77,137.57L35,204.27V246a42,42,0,0,0,0,82.77v48.34H146.72l.19-6.81c.37-12.93,3.52-22.17,9.11-26.7a15.87,15.87,0,0,1,12-3.24,14.1,14.1,0,0,1,4.37,1.57c-14,12.72-23.81,35.41-20.12,49.93,2.44,9.58,10.12,15.09,21.09,15.11,9.66,0,17.45-5.9,21.83-15.79.12.54.25,1.07.4,1.59,2.59,9,10.23,14.2,20.95,14.2,8.66,0,16-4.68,20.56-13.19a30.88,30.88,0,0,0,1.42-2.95c.1.44.2.87.31,1.3,2.46,9.29,9.76,14.7,20,14.84h.23c10.94-.21,19.4-10.71,22.1-27.41,1.81-11.26.8-23.6-3.45-33.61,6-3.5,14.78-7.07,18.46-4.84,1,.62,5.85,4.86,1.05,27.61l-1.78,8.45H405.75V230H433a7,7,0,0,0,0-14ZM14,287.4a28,28,0,1,1,28,28A28,28,0,0,1,14,287.4Zm170.89,87.71c-.74,8.24-4.21,17.87-11.53,17.88-6.36,0-7.12-3-7.52-4.57-2.33-9.15,5.72-26.38,15.57-35.69A46.64,46.64,0,0,1,184.89,375.11ZM199,367a57.13,57.13,0,0,0-5.88-22.42,38.23,38.23,0,0,1,13.83-4.33,15,15,0,0,1,9.4,2.16A73.23,73.23,0,0,0,199,367Zm25.83,20.1c-3.17,5.85-7,5.85-8.25,5.85-6.33,0-7.12-2.75-7.5-4.07-2.31-8.06,5-25.37,15.83-35.41C229.29,364.05,229.47,378.49,224.79,387.14Zm17.2-21a57.77,57.77,0,0,0-5.61-21.1,37.24,37.24,0,0,1,10-4.39,15.84,15.84,0,0,1,8.5.16,13.26,13.26,0,0,1,3.43,1.81A65.27,65.27,0,0,0,242,366.16Zm25.37,11.19c-1.56,9.63-5.5,15.48-8.46,15.64-4.47-.1-5.85-1.84-6.54-4.43-2.2-8.33,3.91-24.28,13.66-33.95A51.67,51.67,0,0,1,267.36,377.35Z"/><polygon class="cls-2" points="64.25 279.54 41.76 307.09 19.3 279.51 64.25 279.54"/></g></g></svg>