<svg xmlns="http://www.w3.org/2000/svg" xmlns:xlink="http://www.w3.org/1999/xlink" viewBox="0 0 407.12 440.45"><defs><style>.cls-1{fill:url(#linear-gradient);}.cls-2{fill:url(#linear-gradient-2);}.cls-3{fill:url(#linear-gradient-3);}.cls-4{fill:url(#linear-gradient-4);}</style><linearGradient id="linear-gradient" y1="220.23" x2="407.12" y2="220.23" gradientUnits="userSpaceOnUse"><stop offset="0" stop-color="#0063a6"/><stop offset="1" stop-color="#ae227a"/></linearGradient><linearGradient id="linear-gradient-2" x1="357.42" y1="369.15" x2="358.92" y2="369.15" xlink:href="#linear-gradient"/><linearGradient id="linear-gradient-3" x1="193.91" y1="440.34" x2="196.98" y2="440.34" xlink:href="#linear-gradient"/><linearGradient id="linear-gradient-4" x1="70.21" y1="391.33" x2="71.98" y2="391.33" xlink:href="#linear-gradient"/></defs><title>bio</title><g id="Layer_2" data-name="Layer 2"><g id="bio"><path class="cls-1" d="M203.56,33.32a7.5,7.5,0,0,0,0,15,187.77,187.77,0,0,1,123.25,46h-50a39.95,39.95,0,1,0,0,79.89h2.91A1.85,1.85,0,0,1,281.6,176v11.51a1.85,1.85,0,0,1-1.85,1.85H274.6a23.35,23.35,0,0,0,0,46.7h30.67a8,8,0,0,1,8,8v12.87a17.4,17.4,0,0,0,17.38,17.38,12.77,12.77,0,0,1,12.7,12.42L345,361.48a188.14,188.14,0,0,1-141.41,64h-.33V410.71a16,16,0,0,1,16-16h7a24.36,24.36,0,0,0,0-48.71h-3.1a3.13,3.13,0,0,1-3.13-3.12V317.71a32.67,32.67,0,0,0-65.27-2.18H130.42a22.76,22.76,0,0,0-22.74,22.74v10.58a26,26,0,0,1-8.77,19.8c-4.94,4.26-11.41,7.09-20.67,9A188.83,188.83,0,0,1,26.1,172.86a122.08,122.08,0,0,0,44.45-.53c16.14-3.22,31.22-11.7,43-23.13a72.94,72.94,0,0,0,14.73-19.88c4.11-8.38,6.39-17.53,8.87-26.48,2.4-8.66,5-17.68,8.68-25.42s8.46-14.6,13.27-21.51c4.92-7.09,10.13-14,14.85-21.22a152.68,152.68,0,0,0,12.21-23.46c1.34-3.12,1.39-6.53-1.18-9.09A7.68,7.68,0,0,0,175.91,1c-.23.13-.48.23-.7.35-.93.35-1.85.69-2.79,1-2.67.9-5.37,1.7-8.08,2.48-7.42,2.14-14.91,4.07-22.4,6-13.67,3.49-27.43,6.65-41.06,10.31C80.39,26.59,60.82,35.8,45,50.06a102.47,102.47,0,0,0-31,51.91,139.62,139.62,0,0,0-4.12,34.48c.06,9.18.95,18.64,3.59,27.49A203.82,203.82,0,0,0,70.2,390.56h0L72,392.09a202.58,202.58,0,0,0,121.93,48.13c1,0,2.05.09,3.07.12q3.28.11,6.58.11a203.14,203.14,0,0,0,153.82-70.38.08.08,0,0,0,0,0c.5-.58,1-1.17,1.5-1.76a202.64,202.64,0,0,0,48.2-131.39C407.12,124.64,315.8,33.32,203.56,33.32ZM25.25,125c.1-1.21.21-2.42.35-3.63,0-.49.1-1,.16-1.46,0-.09.1-.75.15-1.15a.09.09,0,0,1,0,0h0a.09.09,0,0,1,0,0v0a.19.19,0,0,0,0-.08h0c.07-.42.15-1,.15-1,.07-.48.15-1,.23-1.44.24-1.46.5-2.92.79-4.37a120,120,0,0,1,3.73-14.2c.68-2,1.44-4.07,2.23-6.08,0-.13.1-.24.13-.34a.82.82,0,0,0,.06-.16c.05-.09.1-.2.16-.33L34,89.33c.54-1.17,1.1-2.32,1.68-3.46a85.74,85.74,0,0,1,7.71-12.13l.07-.1.06-.07.05-.08,0,0,0,0h0l.22-.27c.31-.4.63-.79.95-1.18.79-1,1.6-1.93,2.43-2.87q2.46-2.79,5.12-5.4c1.75-1.72,3.56-3.38,5.44-5,.93-.79,1.88-1.56,2.83-2.32l.22-.17.25-.19c.5-.38,1-.75,1.52-1.12A112.35,112.35,0,0,1,75,47.14c2.17-1.18,4.38-2.29,6.61-3.34,1-.48,2-.94,3.06-1.39l.76-.32a1.05,1.05,0,0,0,.18-.08l.1,0,1.68-.68c4.73-1.87,9.57-3.5,14.47-4.9,13.47-3.85,27.19-6.87,40.77-10.3,7.55-1.91,15.09-3.84,22.59-5.94q-1.22,2.19-2.55,4.34C159,30.38,154.9,36,150.89,41.62,146.15,48.28,141.4,55,137.17,62A117.82,117.82,0,0,0,126,87.45c-2.68,8.48-4.75,17.14-7.42,25.63-.63,2-1.27,4-2,6l-.29.72a.51.51,0,0,0,0,.1h0v0c-.09.18-.19.41-.23.47-.49,1-1,2-1.49,3q-1.23,2.32-2.66,4.53c-.54.84-1.1,1.67-1.69,2.48-.21.31-.44.61-.66.91-.08.12-.16.21-.21.3h0l-.11.13-.11.13a73.52,73.52,0,0,1-8,8.51,57.59,57.59,0,0,1-8.08,6.31,92.54,92.54,0,0,1-9.87,5.74c-.89.45-1.79.86-2.68,1.29l-.23.11h-.07a.19.19,0,0,0-.08,0h0l-.1,0s0,0-.06,0l0,0h0l-.54.21q-2.74,1.08-5.58,1.9c-8.94,2.62-15.9,3.37-25.24,3.47A123.19,123.19,0,0,1,34.93,159l-1.16-.12-1.22-.14h-.1l-.11,0h0l-.41-.06a188.34,188.34,0,0,1,70.28-80.78A7.5,7.5,0,1,0,94.1,65.23a203.66,203.66,0,0,0-69.24,73.93A128.34,128.34,0,0,1,25.25,125Zm163,285.69v14.12a187.51,187.51,0,0,1-95.66-35.58A51.47,51.47,0,0,0,108.7,380a41,41,0,0,0,14-31.17V338.27a7.75,7.75,0,0,1,7.74-7.74h26.43a12.82,12.82,0,0,0,12.81-12.82,17.68,17.68,0,0,1,35.35,0v25.18A18.14,18.14,0,0,0,223.14,361h3.1a9.36,9.36,0,0,1,0,18.71h-7A31,31,0,0,0,188.23,410.71ZM358.33,286.4a27.86,27.86,0,0,0-27.7-27.09,2.39,2.39,0,0,1-2.38-2.38V244.06a23,23,0,0,0-23-23H274.6a8.35,8.35,0,0,1,0-16.7h5.15a16.87,16.87,0,0,0,16.85-16.85V176a16.87,16.87,0,0,0-16.85-16.85h-2.91a24.95,24.95,0,1,1,0-49.89h65.43a188.21,188.21,0,0,1,17.3,233.39Z"/><path class="cls-2" d="M358.92,368.27a7,7,0,0,1-1.5,1.76C357.92,369.45,358.43,368.86,358.92,368.27Z"/><path class="cls-3" d="M197,440.34a7.25,7.25,0,0,1-3.07-.12C194.93,440.27,196,440.31,197,440.34Z"/><path class="cls-4" d="M72,392.09a7.35,7.35,0,0,1-1.77-1.52Z"/></g></g></svg>