<svg width="60" height="60" viewBox="0 0 60 60" fill="none" xmlns="http://www.w3.org/2000/svg">
<g clip-path="url(#clip0)">
<path d="M40.588 21.498C29.973 21.498 21.3369 30.1341 21.3369 40.7492C21.3369 51.3643 29.973 60.0003 40.588 60.0003C51.2031 60.0003 59.8392 51.3643 59.8392 40.7492C59.8392 30.1341 51.2031 21.498 40.588 21.498ZM40.588 58.0752C31.0347 58.0752 23.262 50.3026 23.262 40.7492C23.262 31.1958 31.0347 23.4232 40.588 23.4232C50.1414 23.4232 57.9141 31.1958 57.9141 40.7492C57.9141 50.3026 50.1414 58.0752 40.588 58.0752Z" fill="white"/>
<path d="M18.4492 54.1582V35.475L21.8884 33.0677L20.7853 31.49L18.4492 33.1245V17.1797L24.7838 12.6547L23.6653 11.0887L18.4492 14.8147V8.02195H16.5241V24.4403L11.308 20.7142L10.1895 22.2803L16.5241 26.8053V42.75L8.41264 37.0719L7.30955 38.6495L16.5241 45.1006V54.1717C13.134 53.8618 2.08576 51.7162 2.08576 36.8986C2.08576 18.7891 14.5047 5.52989 17.4867 2.60853C19.5889 4.66455 26.3701 11.8356 30.176 22.1609L31.9828 21.4958C27.2874 8.75734 18.4964 0.891327 18.1239 0.563096L17.4867 0L16.8494 0.562133C16.1689 1.16373 0.160645 15.5337 0.160645 36.8986C0.160645 53.2987 12.8905 55.7272 16.5241 56.0862V60H18.4492V56.0949C19.6524 55.9852 21.8451 55.6531 24.2563 54.6492L23.518 52.8723C21.4534 53.7309 19.5456 54.0437 18.4492 54.1582Z" fill="white"/>
<path d="M53.1011 38.4558L55.753 37.1303L54.8915 35.4083L52.1386 36.7848L49.2509 35.3409V30.7553L50.9912 29.8861L50.1297 28.1641L48.2884 29.0843L45.4007 27.6405V25.853H43.4756V27.6405L40.5879 29.0843L37.7003 27.6405V25.853H35.7751V27.6405L32.8875 29.0843L31.0461 28.1641L30.1846 29.8861L31.9249 30.7553V35.3409L29.0372 36.7848L26.2843 35.4083L25.4229 37.1303L28.0747 38.4558V43.0404L25.4229 44.3659L26.2843 46.0879L29.0372 44.7114L31.9249 46.1553V50.7409L30.1846 51.6101L31.0461 53.3321L32.8875 52.4128L35.7751 53.8567V55.6441H37.7003V53.8567L40.5879 52.4128L43.4756 53.8567V55.6441H45.4007V53.8567L48.2884 52.4128L50.1297 53.333L50.9912 51.611L48.2884 50.2606L44.4381 52.1857L41.5505 50.7418V46.1562L44.4381 44.7124L48.2884 46.6375L52.1386 44.7124L54.8915 46.0888L55.753 44.3668L53.1011 43.0414V38.4558ZM29.9998 43.0414V38.4558L32.8875 37.0119L35.7751 38.4558V43.0414L32.8875 44.4852L29.9998 43.0414ZM39.6254 50.7418L36.7377 52.1857L33.85 50.7418V46.1562L36.7377 44.7124L39.6254 46.1562V50.7418ZM43.4756 43.0414L40.5879 44.4852L37.7003 43.0414V38.4558L40.5879 37.0119L43.4756 38.4558V43.0414ZM40.5879 34.8597L36.7377 36.7848L33.85 35.3409V30.7553L36.7377 29.3115L40.5879 31.2366L44.4381 29.3115L47.3258 30.7553V35.3409L44.4381 36.7848L40.5879 34.8597ZM51.176 43.0414L48.2884 44.4852L45.4007 43.0414V38.4558L48.2884 37.0119L51.176 38.4558V43.0414Z" fill="white"/>
</g>
<defs>
<clipPath id="clip0">
<rect width="60" height="60" fill="white"/>
</clipPath>
</defs>
</svg>
