<svg xmlns="http://www.w3.org/2000/svg" viewBox="0 0 440.73 441.62"><defs><style>.cls-1{fill:#fff;}</style></defs><title>che</title><g id="Layer_2" data-name="Layer 2"><g id="chemi"><path class="cls-1" d="M405.55,371.26a35,35,0,0,0-19.09,5.65l-112.8-111a69.25,69.25,0,0,0,0-87.9l78.71-77.83a55.5,55.5,0,1,0-10.77-10.44L263,167.49a69.26,69.26,0,0,0-85.85-.05l-50.53-51.12A35.25,35.25,0,1,0,116.07,127l50.31,50.9a69.36,69.36,0,0,0-12.65,64.69l-78,37.21a41.47,41.47,0,1,0,6.13,13.69l77.87-37.15a69.42,69.42,0,0,0,59.46,35l4.32,47A35.18,35.18,0,1,0,238.48,337l-4.34-47.13A69.14,69.14,0,0,0,263,276.41L375.89,387.55a35.17,35.17,0,1,0,29.66-16.29ZM385.24,15a40.5,40.5,0,1,1-40.49,40.5A40.54,40.54,0,0,1,385.24,15ZM96.76,117.83a20.18,20.18,0,1,1,20.18-20.18A20.21,20.21,0,0,1,96.76,117.83Zm-55.23,212a26.53,26.53,0,1,1,26.53-26.53A26.56,26.56,0,0,1,41.53,329.87Zm212.54,42a20.18,20.18,0,1,1-20.18-20.18A20.21,20.21,0,0,1,254.07,371.91ZM220,276.35A54.4,54.4,0,1,1,274.39,222,54.45,54.45,0,0,1,220,276.35ZM405.55,426.62a20.18,20.18,0,1,1,20.18-20.18A20.21,20.21,0,0,1,405.55,426.62Z"/><path class="cls-1" d="M264,226.37a7.5,7.5,0,0,1-15,0,33.79,33.79,0,0,0-33.75-33.75,7.5,7.5,0,0,1,0-15A48.81,48.81,0,0,1,264,226.37Z"/><path class="cls-1" d="M414.72,61.59a7.5,7.5,0,1,1-15,0A20.35,20.35,0,0,0,379.4,41.27a7.5,7.5,0,1,1,0-15A35.36,35.36,0,0,1,414.72,61.59Z"/><path class="cls-1" d="M59.21,308.42a7.5,7.5,0,0,1-15,0,8.15,8.15,0,0,0-8.14-8.13,7.5,7.5,0,1,1,0-15A23.16,23.16,0,0,1,59.21,308.42Z"/></g></g></svg>