<svg width="60" height="60" viewBox="0 0 60 60" fill="none" xmlns="http://www.w3.org/2000/svg">
<path d="M57.2728 31.127V5.45459C57.2728 2.44624 54.8251 0 51.8182 0H5.45459C2.44764 0 0 2.44624 0 5.45459V51.8183C0 54.8265 2.44764 57.2728 5.45459 57.2728H31.127C33.9924 58.9925 37.3315 60 40.9091 60C51.4347 60 60 51.4359 60 40.9091C60 37.3312 58.9925 33.9923 57.2728 31.127ZM30.0001 2.72723H51.8183C53.3231 2.72723 54.5455 3.95105 54.5455 5.45446V27.5742C51.0772 24.0281 46.2487 21.8181 40.9091 21.8181C36.8531 21.8181 33.0959 23.0992 30.0001 25.2648V2.72723ZM2.72723 5.45459C2.72723 3.95118 3.94978 2.72736 5.45446 2.72736H27.2727V27.2728H2.72723V5.45459ZM5.45459 54.5455C3.94978 54.5455 2.72736 53.3217 2.72736 51.8183V30.0001H25.265C23.0995 33.0957 21.8182 36.853 21.8182 40.9091C21.8182 46.249 24.0284 51.0773 27.5743 54.5455H5.45459ZM40.9091 57.2728C31.8857 57.2728 24.5455 49.9325 24.5455 40.9091C24.5455 31.8857 31.8857 24.5455 40.9091 24.5455C49.9325 24.5455 57.2728 31.8857 57.2728 40.9091C57.2728 49.9325 49.9325 57.2728 40.9091 57.2728Z" fill="white"/>
<path d="M20.4545 13.6362H16.3636V9.54532C16.3636 8.79157 15.7537 8.18164 14.9999 8.18164C14.2462 8.18164 13.6362 8.79157 13.6362 9.54532V13.6362H9.54532C8.79157 13.6362 8.18164 14.2462 8.18164 14.9999C8.18177 15.7535 8.7917 16.3635 9.54545 16.3635H13.6364V20.4544C13.6364 21.2081 14.2463 21.8181 15 21.8181C15.7538 21.8181 16.3637 21.2081 16.3637 20.4544V16.3635H20.4546C21.2084 16.3635 21.8183 15.7535 21.8183 14.9998C21.8182 14.246 21.2083 13.6362 20.4545 13.6362Z" fill="white"/>
<path d="M49.091 14.9999C49.091 14.2462 48.4811 13.6362 47.7273 13.6362H36.8183C36.0645 13.6362 35.4546 14.2462 35.4546 14.9999C35.4546 15.7537 36.0645 16.3636 36.8183 16.3636H47.7273C48.4811 16.3636 49.091 15.7537 49.091 14.9999Z" fill="white"/>
<path d="M20.0549 37.2174C19.5222 36.6847 18.6592 36.6847 18.1266 37.2174L14.9999 40.3441L11.8732 37.2174C11.3405 36.6847 10.4775 36.6847 9.94495 37.2174C9.41223 37.7501 9.41223 38.613 9.94495 39.1456L13.0717 42.2724L9.94495 45.3991C9.41223 45.9318 9.41223 46.7947 9.94495 47.3273C10.2112 47.5936 10.5602 47.7268 10.9091 47.7268C11.258 47.7268 11.6069 47.5936 11.8733 47.3273L15 44.2006L18.1268 47.3273C18.3931 47.5936 18.7421 47.7268 19.0909 47.7268C19.4398 47.7268 19.7887 47.5936 20.0551 47.3273C20.5878 46.7946 20.5878 45.9317 20.0551 45.3991L16.9284 42.2724L20.0551 39.1456C20.5876 38.613 20.5876 37.7501 20.0549 37.2174Z" fill="white"/>
<path d="M47.727 35.4546H34.0907C33.337 35.4546 32.7271 36.0645 32.7271 36.8183C32.7271 37.572 33.337 38.1819 34.0907 38.1819H47.7271C48.4809 38.1819 49.0908 37.572 49.0908 36.8183C49.0907 36.0645 48.4808 35.4546 47.727 35.4546Z" fill="white"/>
<path d="M47.727 43.6362H34.0907C33.337 43.6362 32.7271 44.2462 32.7271 44.9999C32.7271 45.7537 33.337 46.3636 34.0907 46.3636H47.7271C48.4809 46.3636 49.0908 45.7537 49.0908 44.9999C49.0907 44.2462 48.4808 43.6362 47.727 43.6362Z" fill="white"/>
</svg>
