<svg width="60" height="60" viewBox="0 0 60 60" fill="none" xmlns="http://www.w3.org/2000/svg">
<path d="M30 25.3125C27.4153 25.3125 25.3125 27.4153 25.3125 30C25.3125 32.5847 27.4153 34.6875 30 34.6875C32.5847 34.6875 34.6875 32.5847 34.6875 30C34.6875 27.4153 32.5847 25.3125 30 25.3125ZM30 32.3438C28.7077 32.3438 27.6562 31.2923 27.6562 30C27.6562 28.7077 28.7077 27.6562 30 27.6562C31.2923 27.6562 32.3438 28.7077 32.3438 30C32.3438 31.2923 31.2923 32.3438 30 32.3438Z" fill="white"/>
<path d="M53.7891 37.0312C54.4363 37.0312 54.9609 36.5066 54.9609 35.8594C54.9609 35.2122 54.4363 34.6875 53.7891 34.6875C53.1419 34.6875 52.6172 35.2122 52.6172 35.8594C52.6172 36.5066 53.1419 37.0312 53.7891 37.0312Z" fill="white"/>
<path d="M46.9481 20.2993C49.3954 11.8707 48.8311 5.93391 45.3516 3.92461C44.0092 3.14965 41.6072 2.63801 37.7876 4.60148C35.3699 5.84437 32.6945 7.92117 30.0007 10.6361C26.2863 6.86988 22.7183 4.39559 19.7808 3.54434C19.2698 1.49836 17.4202 0 15.2344 0C12.6497 0 10.5469 2.10281 10.5469 4.6875C10.5469 5.8902 11.0146 7.04062 11.8266 7.9023C10.8525 11.4646 11.8162 16.3704 12.9912 20.3149C4.71504 22.4898 0 25.9886 0 30C0 34.0114 4.71504 37.5102 12.9912 39.6851C11.8162 43.6298 10.8525 48.5355 11.8266 52.0977C11.0146 52.9595 10.5469 54.1098 10.5469 55.3125C10.5469 57.8972 12.6497 60 15.2344 60C17.4203 60 19.2698 58.5015 19.7808 56.4555C22.7177 55.6044 26.2854 53.1305 30 49.3645C33.7146 53.1303 37.2823 55.6044 40.2192 56.4555C40.7302 58.5015 42.5797 60 44.7656 60C47.3503 60 49.4531 57.8972 49.4531 55.3125C49.4531 54.1092 48.9851 52.9584 48.1734 52.0975C49.1475 48.535 48.1835 43.6288 47.0085 39.6841C47.7954 39.4766 48.5583 39.2548 49.2867 39.021C49.903 38.8232 50.242 38.1632 50.0442 37.5469C49.8463 36.9306 49.1864 36.5917 48.5701 36.7894C47.8443 37.0226 47.0808 37.2431 46.2916 37.4491C45.4644 35.0367 44.4357 32.5343 43.2248 29.989C44.4212 27.457 45.4352 24.958 46.2476 22.5394C53.2151 24.3518 57.6562 27.2343 57.6562 30C57.6562 30.6289 57.4255 31.2737 56.9705 31.9165C56.5964 32.4446 56.7214 33.176 57.2496 33.55C57.7778 33.924 58.5093 33.7989 58.8832 33.2707C59.6243 32.2242 60 31.1238 60 30C60 25.9767 55.2626 22.4721 46.9481 20.2993ZM38.8591 6.68602C40.449 5.86863 42.6625 5.07844 44.1796 5.95441C46.5567 7.32703 46.7262 12.6911 44.6647 19.7568C42.1268 19.2101 39.4138 18.8123 36.5804 18.567C34.9995 16.3284 33.3325 14.2399 31.6109 12.3405C34.1494 9.77309 36.6405 7.82648 38.8591 6.68602ZM30 45.9461C28.7921 44.6045 27.6102 43.1636 26.4662 41.6372C27.6359 41.6909 28.8172 41.7188 30 41.7188C31.1828 41.7188 32.3643 41.6909 33.5338 41.6372C32.3898 43.1637 31.2079 44.6046 30 45.9461ZM29.9957 14.0503C31.2064 15.3947 32.3899 16.8367 33.5339 18.363C31.1987 18.2564 28.8146 18.2562 26.4572 18.364C27.6047 16.8301 28.7882 15.3877 29.9957 14.0503ZM24.7132 39.1868C23.7124 37.7221 22.7609 36.2112 21.8814 34.6876C20.9896 33.1426 20.148 31.5682 19.3743 30C20.148 28.4318 20.9896 26.8575 21.8814 25.3125C22.7714 23.7708 23.7212 22.2604 24.7086 20.8136C28.2151 20.5637 31.833 20.5654 35.2869 20.8132C36.2877 22.278 37.2393 23.7888 38.1189 25.3126C39.0063 26.8496 39.8467 28.4217 40.6221 29.9927C39.8529 31.5625 39.0127 33.1393 38.1189 34.6877C37.2394 36.2113 36.2878 37.7223 35.287 39.187C31.8213 39.4354 28.1803 39.4355 24.7132 39.1868ZM19.8514 24.1407C19.247 25.1878 18.6653 26.2485 18.1104 27.3118C17.3064 25.5108 16.6012 23.738 16.0016 22.0112C17.82 21.6257 19.7298 21.317 21.7136 21.0901C21.0713 22.0876 20.4482 23.1073 19.8514 24.1407ZM18.1105 32.6882C18.6653 33.7516 19.2471 34.8122 19.8516 35.8593C20.4436 36.8849 21.0676 37.9048 21.7161 38.9098C19.7314 38.6828 17.8207 38.3742 16.0017 37.9887C16.6012 36.262 17.3064 34.4892 18.1105 32.6882ZM40.1486 35.8593C40.7538 34.8108 41.335 33.7492 41.8877 32.6854C42.6934 34.4898 43.399 36.2636 43.9983 37.9887C42.1795 38.3741 40.2689 38.6828 38.284 38.9098C38.9324 37.9048 39.5565 36.8849 40.1486 35.8593ZM40.1486 24.1407C39.5565 23.1151 38.9325 22.0954 38.284 21.0904C40.2539 21.3157 42.1499 21.6213 43.9548 22.0024C43.3676 23.7288 42.6739 25.4988 41.8804 27.2945C41.3271 26.2345 40.7484 25.1796 40.1486 24.1407ZM28.3855 12.3363C26.6693 14.224 25.0016 16.3141 23.4141 18.5668C20.5618 18.8137 17.8304 19.2159 15.2746 19.7694C13.967 15.4089 13.5022 11.6844 13.9405 9.19371C14.3571 9.31324 14.7913 9.375 15.2344 9.375C17.3655 9.375 19.1679 7.94473 19.7352 5.99414C22.1755 6.89332 25.2266 9.12492 28.3855 12.3363ZM15.2344 2.34375C16.5294 2.34375 17.5781 3.39141 17.5781 4.6875C17.5781 5.97984 16.5267 7.03125 15.2344 7.03125C13.9364 7.03125 12.8906 5.97141 12.8906 4.6875C12.8906 3.39516 13.942 2.34375 15.2344 2.34375ZM2.34375 30C2.34375 27.2422 6.7677 24.3639 13.7081 22.5506C14.5356 24.9645 15.5625 27.4632 16.7695 30C15.5625 32.5369 14.5356 35.0359 13.7081 37.4495C6.7677 35.6361 2.34375 32.7578 2.34375 30ZM15.2344 57.6562C13.942 57.6562 12.8906 56.6048 12.8906 55.3125C12.8906 54.0299 13.9351 52.9688 15.2344 52.9688C16.6165 52.9688 17.6682 54.1721 17.5755 55.4169C17.575 55.425 17.5744 55.4332 17.574 55.4414C17.5079 56.6832 16.4803 57.6562 15.2344 57.6562ZM19.7352 54.0059C19.1679 52.0552 17.3655 50.625 15.2344 50.625C14.7913 50.625 14.3571 50.6868 13.9405 50.8063C13.5023 48.3156 13.967 44.5912 15.2746 40.2305C17.8321 40.7841 20.5655 41.1864 23.4196 41.4333C25.0032 43.6747 26.6702 45.7634 28.3893 47.6599C25.2286 50.8733 22.1761 53.1063 19.7352 54.0059ZM31.6107 47.6599C33.3296 45.7635 34.9968 43.6748 36.5804 41.4333C39.435 41.1864 42.1683 40.7841 44.7254 40.2305C46.033 44.591 46.4978 48.3155 46.0596 50.8063C45.6429 50.6866 45.2087 50.625 44.7656 50.625C42.6345 50.625 40.8321 52.0552 40.2648 54.0059C37.8239 53.1062 34.7713 50.8733 31.6107 47.6599ZM44.7656 57.6562C43.5197 57.6562 42.4921 56.6832 42.4261 55.4414C42.4257 55.4332 42.4252 55.425 42.4246 55.4169C42.3322 54.1778 43.376 52.9688 44.7656 52.9688C46.0672 52.9688 47.1094 54.0318 47.1094 55.3125C47.1094 56.6048 46.058 57.6562 44.7656 57.6562Z" fill="white"/>
</svg>
