<svg id="phy" xmlns="http://www.w3.org/2000/svg" viewBox="0 0 436 403"><defs><style>.cls-1,.cls-2{fill:none;stroke:#fff;stroke-miterlimit:10;stroke-width:10px;}.cls-1{stroke-linecap:round;}</style></defs><title>phy</title><line class="cls-1" x1="431" y1="179.01" x2="362.5" y2="179.01"/><line class="cls-1" x1="431" y1="220.99" x2="362.5" y2="220.99"/><polyline class="cls-2" points="310.76 37.06 396.75 37.06 396.75 179.01"/><polyline class="cls-1" points="39.98 86.61 39.98 37.06 125.97 37.06"/><line class="cls-1" x1="39.98" y1="121.59" x2="39.98" y2="107.6"/><polyline class="cls-1" points="39.98 250.28 39.98 200.58 5 132.38"/><path class="cls-2" d="M489,828.21V975.12H394.34c12.39-58.74-30.83-30.25-35.19-26.67-21.65,12.75-36,56.1-9.95,56.47,19.42-.37,23.95-56.72-1.7-65.77a22.92,22.92,0,0,0-12.63-.32c-8,2.13-13.74,6.17-18.18,9.58-21,13.14-38.37,56.51-9.9,56.51,27.87,0,24.66-69.56-10.2-66.68a45.74,45.74,0,0,0-22.35,8.83c-21.38,11.69-39.35,57.79-10.65,57.85,26.23,0,24.93-61.2-4.06-66.5-1.94-.35-28.2-4.32-29.37,36.64H132.23V927.84" transform="translate(-92.25 -606.93)"/><rect class="cls-2" x="125.96" y="5" width="151.86" height="65"/><path class="cls-2" d="M377.74,622.71H403a0,0,0,0,1,0,0v42.56a0,0,0,0,1,0,0H377.74a7.66,7.66,0,0,1-7.66-7.66V630.38A7.66,7.66,0,0,1,377.74,622.71Z" transform="translate(680.84 681.06) rotate(180)"/><circle class="cls-2" cx="39.98" cy="285.41" r="34.98"/><polygon class="cls-2" points="55.94 282.66 40.47 301.61 25.03 282.64 55.94 282.66"/></svg>